<svg xmlns="http://www.w3.org/2000/svg" xmlns:xlink="http://www.w3.org/1999/xlink" width="1024" zoomAndPan="magnify" viewBox="0 0 768 576" height="768" preserveAspectRatio="xMidYMid meet" version="1.0"><defs><filter x="0%" y="0%" width="100%" height="100%" id="id1"><feColorMatrix values="0 0 0 0 1 0 0 0 0 1 0 0 0 0 1 0 0 0 1 0" color-interpolation-filters="sRGB"/></filter><g/><mask id="id2"><g filter="url(#id1)"><rect x="-76.8" width="921.6" fill="rgb(0%, 0%, 0%)" y="-57.6" height="691.2" fill-opacity="0.2471"/></g></mask><clipPath id="id3"><path d="M 0.078125 1 L 629 1 L 629 2 L 0.078125 2 Z M 0.078125 1 " clip-rule="nonzero"/></clipPath><clipPath id="id4"><rect x="0" width="630" y="0" height="3"/></clipPath><mask id="id5"><g filter="url(#id1)"><rect x="-76.8" width="921.6" fill="rgb(0%, 0%, 0%)" y="-57.6" height="691.2" fill-opacity="0.2471"/></g></mask><clipPath id="id6"><path d="M 0.078125 1 L 629 1 L 629 2.519531 L 0.078125 2.519531 Z M 0.078125 1 " clip-rule="nonzero"/></clipPath><clipPath id="id7"><rect x="0" width="630" y="0" height="3"/></clipPath><mask id="id8"><g filter="url(#id1)"><rect x="-76.8" width="921.6" fill="rgb(0%, 0%, 0%)" y="-57.6" height="691.2" fill-opacity="0.2471"/></g></mask><clipPath id="id9"><path d="M 0.078125 0 L 629 0 L 629 1.679688 L 0.078125 1.679688 Z M 0.078125 0 " clip-rule="nonzero"/></clipPath><clipPath id="id10"><rect x="0" width="630" y="0" height="2"/></clipPath><mask id="id11"><g filter="url(#id1)"><rect x="-76.8" width="921.6" fill="rgb(0%, 0%, 0%)" y="-57.6" height="691.2" fill-opacity="0.2471"/></g></mask><clipPath id="id12"><path d="M 0.078125 0.121094 L 629 0.121094 L 629 1 L 0.078125 1 Z M 0.078125 0.121094 " clip-rule="nonzero"/></clipPath><clipPath id="id13"><rect x="0" width="630" y="0" height="2"/></clipPath><mask id="id14"><g filter="url(#id1)"><rect x="-76.8" width="921.6" fill="rgb(0%, 0%, 0%)" y="-57.6" height="691.2" fill-opacity="0.2471"/></g></mask><clipPath id="id15"><path d="M 0.078125 0.28125 L 629 0.28125 L 629 1.960938 L 0.078125 1.960938 Z M 0.078125 0.28125 " clip-rule="nonzero"/></clipPath><clipPath id="id16"><rect x="0" width="630" y="0" height="2"/></clipPath><mask id="id17"><g filter="url(#id1)"><rect x="-76.8" width="921.6" fill="rgb(0%, 0%, 0%)" y="-57.6" height="691.2" fill-opacity="0.6"/></g></mask><clipPath id="id18"><path d="M 0.078125 1 L 629 1 L 629 2 L 0.078125 2 Z M 0.078125 1 " clip-rule="nonzero"/></clipPath><clipPath id="id19"><rect x="0" width="630" y="0" height="3"/></clipPath></defs><rect x="-76.8" width="921.6" fill="rgb(100%, 100%, 100%)" y="-57.6" height="691.2" fill-opacity="1"/><rect x="-76.8" width="921.6" fill="rgb(0%, 0%, 0%)" y="-57.6" height="691.2" fill-opacity="1"/><rect x="-76.8" width="921.6" fill="rgb(100%, 100%, 100%)" y="-57.6" height="691.2" fill-opacity="1"/><rect x="-76.8" width="921.6" fill="rgb(0%, 0%, 0%)" y="-57.6" height="691.2" fill-opacity="1"/><g mask="url(#id2)"><g transform="matrix(1, 0, 0, 1, 118, 85)"><g clip-path="url(#id4)"><g clip-path="url(#id3)"><path fill="rgb(0%, 0%, 0%)" d="M 0.277344 1.027344 L 628.777344 1.027344 L 628.777344 1.777344 L 0.277344 1.777344 Z M 0.277344 1.027344 " fill-opacity="1" fill-rule="nonzero"/></g></g></g></g><g mask="url(#id5)"><g transform="matrix(1, 0, 0, 1, 118, 171)"><g clip-path="url(#id7)"><g clip-path="url(#id6)"><path fill="rgb(0%, 0%, 0%)" d="M 0.277344 1.425781 L 628.777344 1.425781 L 628.777344 2.175781 L 0.277344 2.175781 Z M 0.277344 1.425781 " fill-opacity="1" fill-rule="nonzero"/></g></g></g></g><g mask="url(#id8)"><g transform="matrix(1, 0, 0, 1, 118, 258)"><g clip-path="url(#id10)"><g clip-path="url(#id9)"><path fill="rgb(0%, 0%, 0%)" d="M 0.277344 0.824219 L 628.777344 0.824219 L 628.777344 1.574219 L 0.277344 1.574219 Z M 0.277344 0.824219 " fill-opacity="1" fill-rule="nonzero"/></g></g></g></g><g mask="url(#id11)"><g transform="matrix(1, 0, 0, 1, 118, 345)"><g clip-path="url(#id13)"><g clip-path="url(#id12)"><path fill="rgb(0%, 0%, 0%)" d="M 0.277344 0.226562 L 628.777344 0.226562 L 628.777344 0.976562 L 0.277344 0.976562 Z M 0.277344 0.226562 " fill-opacity="1" fill-rule="nonzero"/></g></g></g></g><g mask="url(#id14)"><g transform="matrix(1, 0, 0, 1, 118, 431)"><g clip-path="url(#id16)"><g clip-path="url(#id15)"><path fill="rgb(0%, 0%, 0%)" d="M 0.277344 0.625 L 628.777344 0.625 L 628.777344 1.375 L 0.277344 1.375 Z M 0.277344 0.625 " fill-opacity="1" fill-rule="nonzero"/></g></g></g></g><g mask="url(#id17)"><g transform="matrix(1, 0, 0, 1, 118, 517)"><g clip-path="url(#id19)"><g clip-path="url(#id18)"><path fill="rgb(0%, 0%, 0%)" d="M 0.277344 1.023438 L 628.777344 1.023438 L 628.777344 1.773438 L 0.277344 1.773438 Z M 0.277344 1.023438 " fill-opacity="1" fill-rule="nonzero"/></g></g></g></g><path fill="rgb(27.449036%, 27.449036%, 27.449036%)" d="M 118.277344 518.398438 L 118.277344 91.054688 C 118.277344 90.722656 118.308594 90.398438 118.375 90.074219 C 118.4375 89.75 118.535156 89.433594 118.660156 89.128906 C 118.785156 88.824219 118.941406 88.535156 119.125 88.261719 C 119.308594 87.988281 119.515625 87.730469 119.75 87.5 C 119.984375 87.265625 120.238281 87.058594 120.511719 86.875 C 120.785156 86.691406 121.074219 86.535156 121.382812 86.410156 C 121.6875 86.28125 122 86.1875 122.324219 86.121094 C 122.648438 86.058594 122.976562 86.027344 123.304688 86.027344 L 176.097656 86.027344 C 176.429688 86.027344 176.757812 86.058594 177.082031 86.121094 C 177.402344 86.1875 177.71875 86.28125 178.023438 86.410156 C 178.328125 86.535156 178.617188 86.691406 178.890625 86.875 C 179.167969 87.058594 179.421875 87.265625 179.65625 87.5 C 179.886719 87.730469 180.097656 87.988281 180.28125 88.261719 C 180.464844 88.535156 180.617188 88.824219 180.746094 89.128906 C 180.871094 89.433594 180.964844 89.75 181.03125 90.074219 C 181.09375 90.398438 181.128906 90.722656 181.128906 91.054688 L 181.128906 518.398438 Z M 118.277344 518.398438 " fill-opacity="1" fill-rule="nonzero"/><path fill="rgb(27.449036%, 27.449036%, 27.449036%)" d="M 188.984375 518.398438 L 188.984375 99.695312 C 188.984375 99.363281 189.015625 99.039062 189.078125 98.714844 C 189.144531 98.390625 189.238281 98.074219 189.367188 97.769531 C 189.492188 97.464844 189.648438 97.175781 189.832031 96.902344 C 190.015625 96.625 190.222656 96.371094 190.457031 96.140625 C 190.691406 95.90625 190.945312 95.695312 191.21875 95.511719 C 191.492188 95.332031 191.78125 95.175781 192.085938 95.050781 C 192.390625 94.921875 192.707031 94.828125 193.03125 94.761719 C 193.355469 94.699219 193.679688 94.667969 194.011719 94.667969 L 246.804688 94.667969 C 247.136719 94.667969 247.460938 94.699219 247.785156 94.761719 C 248.109375 94.828125 248.425781 94.921875 248.730469 95.050781 C 249.035156 95.175781 249.324219 95.332031 249.597656 95.511719 C 249.875 95.695312 250.128906 95.90625 250.359375 96.140625 C 250.59375 96.371094 250.800781 96.625 250.984375 96.902344 C 251.167969 97.175781 251.324219 97.464844 251.449219 97.769531 C 251.578125 98.074219 251.671875 98.390625 251.738281 98.714844 C 251.800781 99.039062 251.832031 99.363281 251.832031 99.695312 L 251.832031 518.398438 Z M 188.984375 518.398438 " fill-opacity="1" fill-rule="nonzero"/><path fill="rgb(27.449036%, 27.449036%, 27.449036%)" d="M 259.691406 518.398438 L 259.691406 168.8125 C 259.691406 168.484375 259.722656 168.15625 259.785156 167.832031 C 259.851562 167.507812 259.945312 167.195312 260.074219 166.890625 C 260.199219 166.585938 260.355469 166.292969 260.535156 166.019531 C 260.71875 165.746094 260.929688 165.492188 261.164062 165.257812 C 261.394531 165.023438 261.648438 164.816406 261.925781 164.632812 C 262.199219 164.449219 262.488281 164.292969 262.792969 164.167969 C 263.097656 164.042969 263.414062 163.945312 263.738281 163.882812 C 264.058594 163.816406 264.386719 163.785156 264.71875 163.785156 L 317.511719 163.785156 C 317.84375 163.785156 318.167969 163.816406 318.492188 163.882812 C 318.816406 163.945312 319.128906 164.042969 319.4375 164.167969 C 319.742188 164.292969 320.03125 164.449219 320.304688 164.632812 C 320.578125 164.816406 320.832031 165.023438 321.066406 165.257812 C 321.300781 165.492188 321.507812 165.746094 321.691406 166.019531 C 321.875 166.292969 322.03125 166.585938 322.15625 166.890625 C 322.285156 167.195312 322.378906 167.507812 322.441406 167.832031 C 322.507812 168.15625 322.539062 168.484375 322.539062 168.8125 L 322.539062 518.398438 Z M 259.691406 518.398438 " fill-opacity="1" fill-rule="nonzero"/><path fill="rgb(27.449036%, 27.449036%, 27.449036%)" d="M 330.394531 518.398438 L 330.394531 134.253906 C 330.394531 133.925781 330.429688 133.597656 330.492188 133.273438 C 330.558594 132.949219 330.652344 132.636719 330.777344 132.328125 C 330.90625 132.023438 331.058594 131.734375 331.242188 131.460938 C 331.425781 131.1875 331.636719 130.933594 331.867188 130.699219 C 332.101562 130.464844 332.355469 130.257812 332.628906 130.074219 C 332.90625 129.890625 333.195312 129.734375 333.5 129.609375 C 333.804688 129.480469 334.121094 129.386719 334.441406 129.324219 C 334.765625 129.257812 335.09375 129.226562 335.425781 129.226562 L 388.21875 129.226562 C 388.546875 129.226562 388.875 129.257812 389.199219 129.324219 C 389.523438 129.386719 389.835938 129.480469 390.140625 129.609375 C 390.445312 129.734375 390.738281 129.890625 391.011719 130.074219 C 391.285156 130.257812 391.539062 130.464844 391.773438 130.699219 C 392.007812 130.933594 392.214844 131.1875 392.398438 131.460938 C 392.582031 131.734375 392.738281 132.023438 392.863281 132.328125 C 392.988281 132.636719 393.085938 132.949219 393.148438 133.273438 C 393.214844 133.597656 393.246094 133.925781 393.246094 134.253906 L 393.246094 518.398438 Z M 330.394531 518.398438 " fill-opacity="1" fill-rule="nonzero"/><path fill="rgb(27.449036%, 27.449036%, 27.449036%)" d="M 401.101562 518.398438 L 401.101562 272.492188 C 401.101562 272.164062 401.132812 271.835938 401.199219 271.511719 C 401.261719 271.1875 401.359375 270.875 401.484375 270.570312 C 401.609375 270.265625 401.765625 269.972656 401.949219 269.699219 C 402.132812 269.425781 402.339844 269.171875 402.574219 268.9375 C 402.808594 268.703125 403.0625 268.496094 403.335938 268.3125 C 403.609375 268.128906 403.902344 267.972656 404.207031 267.847656 C 404.511719 267.722656 404.824219 267.625 405.148438 267.5625 C 405.472656 267.496094 405.800781 267.464844 406.128906 267.464844 L 458.925781 267.464844 C 459.253906 267.464844 459.582031 267.496094 459.90625 267.5625 C 460.230469 267.625 460.542969 267.722656 460.847656 267.847656 C 461.152344 267.972656 461.441406 268.128906 461.71875 268.3125 C 461.992188 268.496094 462.246094 268.703125 462.480469 268.9375 C 462.710938 269.171875 462.921875 269.425781 463.105469 269.699219 C 463.289062 269.972656 463.441406 270.265625 463.570312 270.570312 C 463.695312 270.875 463.792969 271.1875 463.855469 271.511719 C 463.917969 271.835938 463.953125 272.164062 463.953125 272.492188 L 463.953125 518.398438 Z M 401.101562 518.398438 " fill-opacity="1" fill-rule="nonzero"/><path fill="rgb(27.449036%, 27.449036%, 27.449036%)" d="M 471.808594 518.398438 L 471.808594 289.773438 C 471.808594 289.441406 471.839844 289.117188 471.90625 288.792969 C 471.96875 288.46875 472.066406 288.152344 472.191406 287.847656 C 472.316406 287.542969 472.472656 287.253906 472.65625 286.980469 C 472.839844 286.707031 473.046875 286.453125 473.28125 286.21875 C 473.515625 285.984375 473.769531 285.777344 474.042969 285.59375 C 474.316406 285.410156 474.605469 285.253906 474.914062 285.128906 C 475.21875 285 475.53125 284.90625 475.855469 284.839844 C 476.179688 284.777344 476.507812 284.746094 476.835938 284.746094 L 529.628906 284.746094 C 529.960938 284.746094 530.289062 284.777344 530.609375 284.839844 C 530.933594 284.90625 531.25 285 531.554688 285.128906 C 531.859375 285.253906 532.148438 285.410156 532.421875 285.59375 C 532.699219 285.777344 532.953125 285.984375 533.1875 286.21875 C 533.417969 286.453125 533.628906 286.707031 533.8125 286.980469 C 533.996094 287.253906 534.148438 287.542969 534.277344 287.847656 C 534.402344 288.152344 534.496094 288.46875 534.5625 288.792969 C 534.625 289.117188 534.660156 289.441406 534.660156 289.773438 L 534.660156 518.398438 Z M 471.808594 518.398438 " fill-opacity="1" fill-rule="nonzero"/><path fill="rgb(27.449036%, 27.449036%, 27.449036%)" d="M 542.515625 518.398438 L 542.515625 272.492188 C 542.515625 272.164062 542.546875 271.835938 542.609375 271.511719 C 542.675781 271.1875 542.769531 270.875 542.898438 270.570312 C 543.023438 270.265625 543.179688 269.972656 543.363281 269.699219 C 543.546875 269.425781 543.753906 269.171875 543.988281 268.9375 C 544.222656 268.703125 544.476562 268.496094 544.75 268.3125 C 545.023438 268.128906 545.3125 267.972656 545.617188 267.847656 C 545.921875 267.722656 546.238281 267.625 546.5625 267.5625 C 546.886719 267.496094 547.210938 267.464844 547.542969 267.464844 L 600.335938 267.464844 C 600.667969 267.464844 600.992188 267.496094 601.316406 267.5625 C 601.640625 267.625 601.957031 267.722656 602.261719 267.847656 C 602.566406 267.972656 602.855469 268.128906 603.128906 268.3125 C 603.40625 268.496094 603.660156 268.703125 603.890625 268.9375 C 604.125 269.171875 604.332031 269.425781 604.515625 269.699219 C 604.699219 269.972656 604.855469 270.265625 604.980469 270.570312 C 605.109375 270.875 605.203125 271.1875 605.269531 271.511719 C 605.332031 271.835938 605.363281 272.164062 605.363281 272.492188 L 605.363281 518.398438 Z M 542.515625 518.398438 " fill-opacity="1" fill-rule="nonzero"/><path fill="rgb(27.449036%, 27.449036%, 27.449036%)" d="M 613.222656 518.398438 L 613.222656 220.652344 C 613.222656 220.324219 613.253906 219.996094 613.316406 219.671875 C 613.382812 219.347656 613.476562 219.035156 613.605469 218.730469 C 613.730469 218.425781 613.886719 218.132812 614.066406 217.859375 C 614.25 217.585938 614.460938 217.332031 614.695312 217.097656 C 614.925781 216.863281 615.179688 216.65625 615.457031 216.472656 C 615.730469 216.289062 616.019531 216.132812 616.324219 216.007812 C 616.628906 215.882812 616.945312 215.785156 617.269531 215.722656 C 617.589844 215.65625 617.917969 215.625 618.25 215.625 L 671.042969 215.625 C 671.371094 215.625 671.699219 215.65625 672.023438 215.722656 C 672.347656 215.785156 672.660156 215.882812 672.96875 216.007812 C 673.273438 216.132812 673.5625 216.289062 673.835938 216.472656 C 674.109375 216.65625 674.363281 216.863281 674.597656 217.097656 C 674.832031 217.332031 675.039062 217.585938 675.222656 217.859375 C 675.40625 218.132812 675.5625 218.425781 675.6875 218.730469 C 675.8125 219.035156 675.910156 219.347656 675.972656 219.671875 C 676.039062 219.996094 676.070312 220.324219 676.070312 220.652344 L 676.070312 518.398438 Z M 613.222656 518.398438 " fill-opacity="1" fill-rule="nonzero"/><path fill="rgb(27.449036%, 27.449036%, 27.449036%)" d="M 683.925781 518.398438 L 683.925781 376.171875 C 683.925781 375.84375 683.960938 375.515625 684.023438 375.191406 C 684.089844 374.867188 684.183594 374.554688 684.308594 374.25 C 684.4375 373.945312 684.589844 373.652344 684.773438 373.378906 C 684.957031 373.105469 685.167969 372.851562 685.398438 372.617188 C 685.632812 372.382812 685.886719 372.175781 686.160156 371.992188 C 686.4375 371.808594 686.726562 371.652344 687.03125 371.527344 C 687.335938 371.402344 687.648438 371.304688 687.972656 371.242188 C 688.296875 371.175781 688.625 371.144531 688.957031 371.144531 L 741.75 371.144531 C 742.078125 371.144531 742.40625 371.175781 742.730469 371.242188 C 743.054688 371.304688 743.367188 371.402344 743.671875 371.527344 C 743.976562 371.652344 744.269531 371.808594 744.542969 371.992188 C 744.816406 372.175781 745.070312 372.382812 745.304688 372.617188 C 745.539062 372.851562 745.746094 373.105469 745.929688 373.378906 C 746.113281 373.652344 746.269531 373.945312 746.394531 374.25 C 746.519531 374.554688 746.617188 374.867188 746.679688 375.191406 C 746.746094 375.515625 746.777344 375.84375 746.777344 376.171875 L 746.777344 518.398438 Z M 683.925781 518.398438 " fill-opacity="1" fill-rule="nonzero"/><path fill="rgb(2.749634%, 64.709473%, 76.469421%)" d="M 118.277344 155.207031 L 181.128906 155.207031 L 181.128906 518.398438 L 118.277344 518.398438 Z M 118.277344 155.207031 " fill-opacity="1" fill-rule="nonzero"/><path fill="rgb(2.749634%, 64.709473%, 76.469421%)" d="M 188.984375 172.496094 L 251.832031 172.496094 L 251.832031 518.398438 L 188.984375 518.398438 Z M 188.984375 172.496094 " fill-opacity="1" fill-rule="nonzero"/><path fill="rgb(2.749634%, 64.709473%, 76.469421%)" d="M 259.691406 215.679688 L 322.539062 215.679688 L 322.539062 518.398438 L 259.691406 518.398438 Z M 259.691406 215.679688 " fill-opacity="1" fill-rule="nonzero"/><path fill="rgb(2.749634%, 64.709473%, 76.469421%)" d="M 330.394531 198.414062 L 393.246094 198.414062 L 393.246094 518.398438 L 330.394531 518.398438 Z M 330.394531 198.414062 " fill-opacity="1" fill-rule="nonzero"/><path fill="rgb(2.749634%, 64.709473%, 76.469421%)" d="M 401.101562 310.730469 L 463.953125 310.730469 L 463.953125 518.398438 L 401.101562 518.398438 Z M 401.101562 310.730469 " fill-opacity="1" fill-rule="nonzero"/><path fill="rgb(2.749634%, 64.709473%, 76.469421%)" d="M 471.808594 328.015625 L 534.660156 328.015625 L 534.660156 518.398438 L 471.808594 518.398438 Z M 471.808594 328.015625 " fill-opacity="1" fill-rule="nonzero"/><path fill="rgb(2.749634%, 64.709473%, 76.469421%)" d="M 542.515625 310.730469 L 605.363281 310.730469 L 605.363281 518.398438 L 542.515625 518.398438 Z M 542.515625 310.730469 " fill-opacity="1" fill-rule="nonzero"/><path fill="rgb(2.749634%, 64.709473%, 76.469421%)" d="M 613.222656 258.878906 L 676.070312 258.878906 L 676.070312 518.398438 L 613.222656 518.398438 Z M 613.222656 258.878906 " fill-opacity="1" fill-rule="nonzero"/><path fill="rgb(2.749634%, 64.709473%, 76.469421%)" d="M 683.925781 405.792969 L 746.777344 405.792969 L 746.777344 518.398438 L 683.925781 518.398438 Z M 683.925781 405.792969 " fill-opacity="1" fill-rule="nonzero"/><path fill="rgb(94.509888%, 28.62854%, 0.779724%)" d="M 118.277344 328.15625 L 181.128906 328.15625 L 181.128906 518.398438 L 118.277344 518.398438 Z M 118.277344 328.15625 " fill-opacity="1" fill-rule="nonzero"/><path fill="rgb(94.509888%, 28.62854%, 0.779724%)" d="M 188.984375 345.445312 L 251.832031 345.445312 L 251.832031 518.398438 L 188.984375 518.398438 Z M 188.984375 345.445312 " fill-opacity="1" fill-rule="nonzero"/><path fill="rgb(94.509888%, 28.62854%, 0.779724%)" d="M 259.691406 388.664062 L 322.539062 388.664062 L 322.539062 518.398438 L 259.691406 518.398438 Z M 259.691406 388.664062 " fill-opacity="1" fill-rule="nonzero"/><path fill="rgb(94.509888%, 28.62854%, 0.779724%)" d="M 330.394531 319.488281 L 393.246094 319.488281 L 393.246094 518.398438 L 330.394531 518.398438 Z M 330.394531 319.488281 " fill-opacity="1" fill-rule="nonzero"/><path fill="rgb(94.509888%, 28.62854%, 0.779724%)" d="M 401.101562 414.5625 L 463.953125 414.5625 L 463.953125 518.398438 L 401.101562 518.398438 Z M 401.101562 414.5625 " fill-opacity="1" fill-rule="nonzero"/><path fill="rgb(94.509888%, 28.62854%, 0.779724%)" d="M 471.808594 414.550781 L 534.660156 414.550781 L 534.660156 518.398438 L 471.808594 518.398438 Z M 471.808594 414.550781 " fill-opacity="1" fill-rule="nonzero"/><path fill="rgb(94.509888%, 28.62854%, 0.779724%)" d="M 542.515625 414.5625 L 605.363281 414.5625 L 605.363281 518.398438 L 542.515625 518.398438 Z M 542.515625 414.5625 " fill-opacity="1" fill-rule="nonzero"/><path fill="rgb(94.509888%, 28.62854%, 0.779724%)" d="M 613.222656 388.640625 L 676.070312 388.640625 L 676.070312 518.398438 L 613.222656 518.398438 Z M 613.222656 388.640625 " fill-opacity="1" fill-rule="nonzero"/><path fill="rgb(94.509888%, 28.62854%, 0.779724%)" d="M 683.925781 431.777344 L 746.777344 431.777344 L 746.777344 518.398438 L 683.925781 518.398438 Z M 683.925781 431.777344 " fill-opacity="1" fill-rule="nonzero"/><g fill="rgb(96.469116%, 90.589905%, 84.709167%)" fill-opacity="1"><g transform="translate(193.255545, 65.972311)"><g><path d="M 3.9375 -36.65625 L 15.71875 -36.65625 L 15.71875 -9.375 L 34.53125 -9.375 L 34.53125 0 L 3.9375 0 Z M 3.9375 -36.65625 "/></g></g></g><g fill="rgb(96.469116%, 90.589905%, 84.709167%)" fill-opacity="1"><g transform="translate(229.864541, 65.972311)"><g><path d="M 28.5 0 L 26.953125 -5.171875 L 14.125 -5.171875 L 12.578125 0 L 0.53125 0 L 13.90625 -36.65625 L 27.59375 -36.65625 L 40.96875 0 Z M 16.578125 -13.375 L 24.515625 -13.375 L 20.671875 -26.421875 L 20.453125 -26.421875 Z M 16.578125 -13.375 "/></g></g></g><g fill="rgb(96.469116%, 90.589905%, 84.709167%)" fill-opacity="1"><g transform="translate(272.38852, 65.972311)"><g><path d="M 30.15625 0 L 14.765625 -17.796875 L 14.765625 0 L 3.9375 0 L 3.9375 -36.65625 L 14.21875 -36.65625 L 29.625 -18.59375 L 29.625 -36.65625 L 40.4375 -36.65625 L 40.4375 0 Z M 30.15625 0 "/></g></g></g><g fill="rgb(96.469116%, 90.589905%, 84.709167%)" fill-opacity="1"><g transform="translate(317.84335, 65.972311)"><g><path d="M 22.375 -37.296875 C 25.894531 -37.296875 29.054688 -36.757812 31.859375 -35.6875 C 34.671875 -34.625 36.898438 -33.050781 38.546875 -30.96875 C 40.203125 -28.894531 41.03125 -26.367188 41.03125 -23.390625 L 29.78125 -23.390625 C 29.78125 -24.921875 29.101562 -26.15625 27.75 -27.09375 C 26.40625 -28.03125 24.773438 -28.5 22.859375 -28.5 C 20.085938 -28.5 17.988281 -27.757812 16.5625 -26.28125 C 15.144531 -24.8125 14.4375 -22.726562 14.4375 -20.03125 L 14.4375 -16.625 C 14.4375 -13.925781 15.144531 -11.835938 16.5625 -10.359375 C 17.988281 -8.890625 20.085938 -8.15625 22.859375 -8.15625 C 24.773438 -8.15625 26.40625 -8.609375 27.75 -9.515625 C 29.101562 -10.421875 29.78125 -11.582031 29.78125 -13 L 21.46875 -13 L 21.46875 -20.453125 L 41.03125 -20.453125 L 41.03125 0 L 34.953125 0 L 33.78125 -3.625 C 30.4375 -0.78125 26.066406 0.640625 20.671875 0.640625 C 14.597656 0.640625 10.03125 -0.945312 6.96875 -4.125 C 3.914062 -7.300781 2.390625 -12.035156 2.390625 -18.328125 C 2.390625 -24.546875 4.117188 -29.257812 7.578125 -32.46875 C 11.046875 -35.6875 15.976562 -37.296875 22.375 -37.296875 Z M 22.375 -37.296875 "/></g></g></g><g fill="rgb(96.469116%, 90.589905%, 84.709167%)" fill-opacity="1"><g transform="translate(363.298179, 65.972311)"><g><path d="M 40.4375 -14.765625 C 40.4375 -9.753906 38.851562 -5.929688 35.6875 -3.296875 C 32.53125 -0.671875 28.039062 0.640625 22.21875 0.640625 C 16.394531 0.640625 11.890625 -0.671875 8.703125 -3.296875 C 5.523438 -5.929688 3.9375 -9.753906 3.9375 -14.765625 L 3.9375 -36.65625 L 15.71875 -36.65625 L 15.71875 -14.921875 C 15.71875 -12.859375 16.265625 -11.210938 17.359375 -9.984375 C 18.460938 -8.765625 20.066406 -8.15625 22.171875 -8.15625 C 24.265625 -8.15625 25.867188 -8.773438 26.984375 -10.015625 C 28.109375 -11.253906 28.671875 -12.890625 28.671875 -14.921875 L 28.671875 -36.65625 L 40.4375 -36.65625 Z M 40.4375 -14.765625 "/></g></g></g><g fill="rgb(96.469116%, 90.589905%, 84.709167%)" fill-opacity="1"><g transform="translate(408.753009, 65.972311)"><g><path d="M 28.5 0 L 26.953125 -5.171875 L 14.125 -5.171875 L 12.578125 0 L 0.53125 0 L 13.90625 -36.65625 L 27.59375 -36.65625 L 40.96875 0 Z M 16.578125 -13.375 L 24.515625 -13.375 L 20.671875 -26.421875 L 20.453125 -26.421875 Z M 16.578125 -13.375 "/></g></g></g><g fill="rgb(96.469116%, 90.589905%, 84.709167%)" fill-opacity="1"><g transform="translate(451.276998, 65.972311)"><g><path d="M 22.375 -37.296875 C 25.894531 -37.296875 29.054688 -36.757812 31.859375 -35.6875 C 34.671875 -34.625 36.898438 -33.050781 38.546875 -30.96875 C 40.203125 -28.894531 41.03125 -26.367188 41.03125 -23.390625 L 29.78125 -23.390625 C 29.78125 -24.921875 29.101562 -26.15625 27.75 -27.09375 C 26.40625 -28.03125 24.773438 -28.5 22.859375 -28.5 C 20.085938 -28.5 17.988281 -27.757812 16.5625 -26.28125 C 15.144531 -24.8125 14.4375 -22.726562 14.4375 -20.03125 L 14.4375 -16.625 C 14.4375 -13.925781 15.144531 -11.835938 16.5625 -10.359375 C 17.988281 -8.890625 20.085938 -8.15625 22.859375 -8.15625 C 24.773438 -8.15625 26.40625 -8.609375 27.75 -9.515625 C 29.101562 -10.421875 29.78125 -11.582031 29.78125 -13 L 21.46875 -13 L 21.46875 -20.453125 L 41.03125 -20.453125 L 41.03125 0 L 34.953125 0 L 33.78125 -3.625 C 30.4375 -0.78125 26.066406 0.640625 20.671875 0.640625 C 14.597656 0.640625 10.03125 -0.945312 6.96875 -4.125 C 3.914062 -7.300781 2.390625 -12.035156 2.390625 -18.328125 C 2.390625 -24.546875 4.117188 -29.257812 7.578125 -32.46875 C 11.046875 -35.6875 15.976562 -37.296875 22.375 -37.296875 Z M 22.375 -37.296875 "/></g></g></g><g fill="rgb(96.469116%, 90.589905%, 84.709167%)" fill-opacity="1"><g transform="translate(496.731814, 65.972311)"><g><path d="M 3.9375 -36.65625 L 35.640625 -36.65625 L 35.640625 -27.859375 L 15.71875 -27.859375 L 15.71875 -22.796875 L 32.765625 -22.796875 L 32.765625 -14.390625 L 15.71875 -14.390625 L 15.71875 -8.796875 L 36.015625 -8.796875 L 36.015625 0 L 3.9375 0 Z M 3.9375 -36.65625 "/></g></g></g><g fill="rgb(96.469116%, 90.589905%, 84.709167%)" fill-opacity="1"><g transform="translate(536.271669, 65.972311)"><g><path d="M 19.34375 -37.296875 C 24.03125 -37.296875 27.882812 -36.34375 30.90625 -34.4375 C 33.925781 -32.539062 35.46875 -29.726562 35.53125 -26 L 35.53125 -25.359375 L 24.515625 -25.359375 L 24.515625 -25.578125 C 24.515625 -26.640625 24.125 -27.523438 23.34375 -28.234375 C 22.5625 -28.953125 21.367188 -29.3125 19.765625 -29.3125 C 18.203125 -29.3125 17.003906 -29.078125 16.171875 -28.609375 C 15.335938 -28.148438 14.921875 -27.582031 14.921875 -26.90625 C 14.921875 -25.945312 15.488281 -25.234375 16.625 -24.765625 C 17.757812 -24.304688 19.585938 -23.832031 22.109375 -23.34375 C 25.054688 -22.738281 27.476562 -22.101562 29.375 -21.4375 C 31.28125 -20.78125 32.941406 -19.707031 34.359375 -18.21875 C 35.785156 -16.726562 36.515625 -14.703125 36.546875 -12.140625 C 36.546875 -7.804688 35.082031 -4.59375 32.15625 -2.5 C 29.226562 -0.40625 25.3125 0.640625 20.40625 0.640625 C 14.6875 0.640625 10.238281 -0.316406 7.0625 -2.234375 C 3.882812 -4.148438 2.296875 -7.546875 2.296875 -12.421875 L 13.421875 -12.421875 C 13.421875 -10.566406 13.898438 -9.328125 14.859375 -8.703125 C 15.816406 -8.085938 17.3125 -7.78125 19.34375 -7.78125 C 20.832031 -7.78125 22.066406 -7.9375 23.046875 -8.25 C 24.023438 -8.570312 24.515625 -9.234375 24.515625 -10.234375 C 24.515625 -11.117188 23.972656 -11.78125 22.890625 -12.21875 C 21.804688 -12.664062 20.035156 -13.140625 17.578125 -13.640625 C 14.597656 -14.273438 12.128906 -14.9375 10.171875 -15.625 C 8.222656 -16.320312 6.519531 -17.46875 5.0625 -19.0625 C 3.601562 -20.664062 2.875 -22.835938 2.875 -25.578125 C 2.875 -29.585938 4.425781 -32.539062 7.53125 -34.4375 C 10.644531 -36.34375 14.582031 -37.296875 19.34375 -37.296875 Z M 19.34375 -37.296875 "/></g></g></g><g fill="rgb(96.469116%, 90.589905%, 84.709167%)" fill-opacity="1"><g transform="translate(135.860558, 549.106187)"><g><path d="M 8.3125 0 L 7.640625 0 L 7.640625 -4.71875 L 2.03125 -4.71875 L 2.03125 0 L 1.359375 0 L 1.359375 -9.609375 L 2.03125 -9.609375 L 2.03125 -5.34375 L 7.640625 -5.34375 L 7.640625 -9.609375 L 8.3125 -9.609375 Z M 8.3125 0 "/></g></g></g><g fill="rgb(96.469116%, 90.589905%, 84.709167%)" fill-opacity="1"><g transform="translate(145.533645, 549.106187)"><g><path d="M 3.859375 0 L 3.1875 0 L 3.1875 -8.96875 L 0.0625 -8.96875 L 0.0625 -9.609375 L 6.984375 -9.609375 L 6.984375 -8.96875 L 3.859375 -8.96875 Z M 3.859375 0 "/></g></g></g><g fill="rgb(96.469116%, 90.589905%, 84.709167%)" fill-opacity="1"><g transform="translate(152.579961, 549.106187)"><g><path d="M 5.578125 0 L 2 -8.875 L 1.953125 -8.875 C 1.984375 -8.320312 2 -7.765625 2 -7.203125 L 2 0 L 1.359375 0 L 1.359375 -9.609375 L 2.390625 -9.609375 L 5.796875 -1.15625 L 5.84375 -1.15625 L 9.25 -9.609375 L 10.25 -9.609375 L 10.25 0 L 9.578125 0 L 9.578125 -7.28125 C 9.578125 -7.789062 9.601562 -8.316406 9.65625 -8.859375 L 9.609375 -8.859375 L 6.015625 0 Z M 5.578125 0 "/></g></g></g><g fill="rgb(96.469116%, 90.589905%, 84.709167%)" fill-opacity="1"><g transform="translate(164.183724, 549.106187)"><g><path d="M 1.359375 0 L 1.359375 -9.609375 L 2.03125 -9.609375 L 2.03125 -0.625 L 6.609375 -0.625 L 6.609375 0 Z M 1.359375 0 "/></g></g></g><g fill="rgb(96.469116%, 90.589905%, 84.709167%)" fill-opacity="1"><g transform="translate(215.441921, 549.106187)"><g><path d="M 5.453125 -9.140625 C 4.253906 -9.140625 3.304688 -8.753906 2.609375 -7.984375 C 1.921875 -7.210938 1.578125 -6.15625 1.578125 -4.8125 C 1.578125 -3.445312 1.898438 -2.382812 2.546875 -1.625 C 3.203125 -0.863281 4.140625 -0.484375 5.359375 -0.484375 C 6.160156 -0.484375 6.898438 -0.585938 7.578125 -0.796875 L 7.578125 -0.203125 C 6.941406 0.015625 6.148438 0.125 5.203125 0.125 C 3.847656 0.125 2.78125 -0.304688 2 -1.171875 C 1.226562 -2.046875 0.84375 -3.265625 0.84375 -4.828125 C 0.84375 -5.804688 1.023438 -6.664062 1.390625 -7.40625 C 1.765625 -8.15625 2.300781 -8.726562 3 -9.125 C 3.695312 -9.53125 4.503906 -9.734375 5.421875 -9.734375 C 6.359375 -9.734375 7.195312 -9.5625 7.9375 -9.21875 L 7.671875 -8.609375 C 6.960938 -8.960938 6.222656 -9.140625 5.453125 -9.140625 Z M 5.453125 -9.140625 "/></g></g></g><g fill="rgb(96.469116%, 90.589905%, 84.709167%)" fill-opacity="1"><g transform="translate(223.795051, 549.106187)"><g><path d="M 6.65625 -2.46875 C 6.65625 -1.675781 6.359375 -1.046875 5.765625 -0.578125 C 5.179688 -0.109375 4.398438 0.125 3.421875 0.125 C 2.253906 0.125 1.359375 0 0.734375 -0.25 L 0.734375 -0.921875 C 1.421875 -0.628906 2.300781 -0.484375 3.375 -0.484375 C 4.164062 -0.484375 4.789062 -0.660156 5.25 -1.015625 C 5.707031 -1.378906 5.9375 -1.859375 5.9375 -2.453125 C 5.9375 -2.816406 5.859375 -3.117188 5.703125 -3.359375 C 5.554688 -3.597656 5.3125 -3.8125 4.96875 -4 C 4.625 -4.195312 4.113281 -4.410156 3.4375 -4.640625 C 2.457031 -4.984375 1.78125 -5.347656 1.40625 -5.734375 C 1.03125 -6.128906 0.84375 -6.648438 0.84375 -7.296875 C 0.84375 -8.015625 1.125 -8.597656 1.6875 -9.046875 C 2.25 -9.503906 2.972656 -9.734375 3.859375 -9.734375 C 4.765625 -9.734375 5.613281 -9.566406 6.40625 -9.234375 L 6.15625 -8.65625 C 5.363281 -8.988281 4.601562 -9.15625 3.875 -9.15625 C 3.164062 -9.15625 2.597656 -8.988281 2.171875 -8.65625 C 1.753906 -8.332031 1.546875 -7.882812 1.546875 -7.3125 C 1.546875 -6.957031 1.609375 -6.664062 1.734375 -6.4375 C 1.867188 -6.21875 2.082031 -6.015625 2.375 -5.828125 C 2.664062 -5.648438 3.171875 -5.429688 3.890625 -5.171875 C 4.640625 -4.910156 5.203125 -4.660156 5.578125 -4.421875 C 5.953125 -4.179688 6.222656 -3.90625 6.390625 -3.59375 C 6.566406 -3.289062 6.65625 -2.914062 6.65625 -2.46875 Z M 6.65625 -2.46875 "/></g></g></g><g fill="rgb(96.469116%, 90.589905%, 84.709167%)" fill-opacity="1"><g transform="translate(231.123741, 549.106187)"><g><path d="M 6.65625 -2.46875 C 6.65625 -1.675781 6.359375 -1.046875 5.765625 -0.578125 C 5.179688 -0.109375 4.398438 0.125 3.421875 0.125 C 2.253906 0.125 1.359375 0 0.734375 -0.25 L 0.734375 -0.921875 C 1.421875 -0.628906 2.300781 -0.484375 3.375 -0.484375 C 4.164062 -0.484375 4.789062 -0.660156 5.25 -1.015625 C 5.707031 -1.378906 5.9375 -1.859375 5.9375 -2.453125 C 5.9375 -2.816406 5.859375 -3.117188 5.703125 -3.359375 C 5.554688 -3.597656 5.3125 -3.8125 4.96875 -4 C 4.625 -4.195312 4.113281 -4.410156 3.4375 -4.640625 C 2.457031 -4.984375 1.78125 -5.347656 1.40625 -5.734375 C 1.03125 -6.128906 0.84375 -6.648438 0.84375 -7.296875 C 0.84375 -8.015625 1.125 -8.597656 1.6875 -9.046875 C 2.25 -9.503906 2.972656 -9.734375 3.859375 -9.734375 C 4.765625 -9.734375 5.613281 -9.566406 6.40625 -9.234375 L 6.15625 -8.65625 C 5.363281 -8.988281 4.601562 -9.15625 3.875 -9.15625 C 3.164062 -9.15625 2.597656 -8.988281 2.171875 -8.65625 C 1.753906 -8.332031 1.546875 -7.882812 1.546875 -7.3125 C 1.546875 -6.957031 1.609375 -6.664062 1.734375 -6.4375 C 1.867188 -6.21875 2.082031 -6.015625 2.375 -5.828125 C 2.664062 -5.648438 3.171875 -5.429688 3.890625 -5.171875 C 4.640625 -4.910156 5.203125 -4.660156 5.578125 -4.421875 C 5.953125 -4.179688 6.222656 -3.90625 6.390625 -3.59375 C 6.566406 -3.289062 6.65625 -2.914062 6.65625 -2.46875 Z M 6.65625 -2.46875 "/></g></g></g><g fill="rgb(96.469116%, 90.589905%, 84.709167%)" fill-opacity="1"><g transform="translate(268.218399, 549.106187)"><g><path d="M -0.21875 2.421875 C -0.625 2.421875 -0.953125 2.363281 -1.203125 2.25 L -1.203125 1.671875 C -0.867188 1.753906 -0.546875 1.796875 -0.234375 1.796875 C 0.828125 1.796875 1.359375 1.21875 1.359375 0.0625 L 1.359375 -9.609375 L 2.03125 -9.609375 L 2.03125 0 C 2.03125 1.613281 1.28125 2.421875 -0.21875 2.421875 Z M -0.21875 2.421875 "/></g></g></g><g fill="rgb(96.469116%, 90.589905%, 84.709167%)" fill-opacity="1"><g transform="translate(271.541264, 549.106187)"><g><path d="M 5.53125 0 L 5.359375 -1.125 L 5.3125 -1.125 C 4.957031 -0.664062 4.585938 -0.34375 4.203125 -0.15625 C 3.828125 0.03125 3.378906 0.125 2.859375 0.125 C 2.160156 0.125 1.613281 -0.0507812 1.21875 -0.40625 C 0.832031 -0.769531 0.640625 -1.265625 0.640625 -1.890625 C 0.640625 -2.585938 0.929688 -3.128906 1.515625 -3.515625 C 2.097656 -3.898438 2.9375 -4.101562 4.03125 -4.125 L 5.390625 -4.171875 L 5.390625 -4.640625 C 5.390625 -5.316406 5.25 -5.828125 4.96875 -6.171875 C 4.695312 -6.523438 4.253906 -6.703125 3.640625 -6.703125 C 2.984375 -6.703125 2.300781 -6.519531 1.59375 -6.15625 L 1.34375 -6.71875 C 2.125 -7.082031 2.898438 -7.265625 3.671875 -7.265625 C 4.453125 -7.265625 5.035156 -7.0625 5.421875 -6.65625 C 5.816406 -6.25 6.015625 -5.613281 6.015625 -4.75 L 6.015625 0 Z M 2.90625 -0.453125 C 3.664062 -0.453125 4.265625 -0.671875 4.703125 -1.109375 C 5.140625 -1.546875 5.359375 -2.15625 5.359375 -2.9375 L 5.359375 -3.625 L 4.125 -3.578125 C 3.113281 -3.523438 2.394531 -3.367188 1.96875 -3.109375 C 1.539062 -2.847656 1.328125 -2.4375 1.328125 -1.875 C 1.328125 -1.425781 1.460938 -1.078125 1.734375 -0.828125 C 2.015625 -0.578125 2.40625 -0.453125 2.90625 -0.453125 Z M 2.90625 -0.453125 "/></g></g></g><g fill="rgb(96.469116%, 90.589905%, 84.709167%)" fill-opacity="1"><g transform="translate(278.666383, 549.106187)"><g><path d="M 2.765625 0 L 0 -7.140625 L 0.671875 -7.140625 L 2.515625 -2.28125 C 2.765625 -1.664062 2.945312 -1.125 3.0625 -0.65625 L 3.109375 -0.65625 C 3.285156 -1.25 3.46875 -1.796875 3.65625 -2.296875 L 5.5 -7.140625 L 6.171875 -7.140625 L 3.421875 0 Z M 2.765625 0 "/></g></g></g><g fill="rgb(96.469116%, 90.589905%, 84.709167%)" fill-opacity="1"><g transform="translate(284.839294, 549.106187)"><g><path d="M 5.53125 0 L 5.359375 -1.125 L 5.3125 -1.125 C 4.957031 -0.664062 4.585938 -0.34375 4.203125 -0.15625 C 3.828125 0.03125 3.378906 0.125 2.859375 0.125 C 2.160156 0.125 1.613281 -0.0507812 1.21875 -0.40625 C 0.832031 -0.769531 0.640625 -1.265625 0.640625 -1.890625 C 0.640625 -2.585938 0.929688 -3.128906 1.515625 -3.515625 C 2.097656 -3.898438 2.9375 -4.101562 4.03125 -4.125 L 5.390625 -4.171875 L 5.390625 -4.640625 C 5.390625 -5.316406 5.25 -5.828125 4.96875 -6.171875 C 4.695312 -6.523438 4.253906 -6.703125 3.640625 -6.703125 C 2.984375 -6.703125 2.300781 -6.519531 1.59375 -6.15625 L 1.34375 -6.71875 C 2.125 -7.082031 2.898438 -7.265625 3.671875 -7.265625 C 4.453125 -7.265625 5.035156 -7.0625 5.421875 -6.65625 C 5.816406 -6.25 6.015625 -5.613281 6.015625 -4.75 L 6.015625 0 Z M 2.90625 -0.453125 C 3.664062 -0.453125 4.265625 -0.671875 4.703125 -1.109375 C 5.140625 -1.546875 5.359375 -2.15625 5.359375 -2.9375 L 5.359375 -3.625 L 4.125 -3.578125 C 3.113281 -3.523438 2.394531 -3.367188 1.96875 -3.109375 C 1.539062 -2.847656 1.328125 -2.4375 1.328125 -1.875 C 1.328125 -1.425781 1.460938 -1.078125 1.734375 -0.828125 C 2.015625 -0.578125 2.40625 -0.453125 2.90625 -0.453125 Z M 2.90625 -0.453125 "/></g></g></g><g fill="rgb(96.469116%, 90.589905%, 84.709167%)" fill-opacity="1"><g transform="translate(291.964413, 549.106187)"><g><path d="M 6.65625 -2.46875 C 6.65625 -1.675781 6.359375 -1.046875 5.765625 -0.578125 C 5.179688 -0.109375 4.398438 0.125 3.421875 0.125 C 2.253906 0.125 1.359375 0 0.734375 -0.25 L 0.734375 -0.921875 C 1.421875 -0.628906 2.300781 -0.484375 3.375 -0.484375 C 4.164062 -0.484375 4.789062 -0.660156 5.25 -1.015625 C 5.707031 -1.378906 5.9375 -1.859375 5.9375 -2.453125 C 5.9375 -2.816406 5.859375 -3.117188 5.703125 -3.359375 C 5.554688 -3.597656 5.3125 -3.8125 4.96875 -4 C 4.625 -4.195312 4.113281 -4.410156 3.4375 -4.640625 C 2.457031 -4.984375 1.78125 -5.347656 1.40625 -5.734375 C 1.03125 -6.128906 0.84375 -6.648438 0.84375 -7.296875 C 0.84375 -8.015625 1.125 -8.597656 1.6875 -9.046875 C 2.25 -9.503906 2.972656 -9.734375 3.859375 -9.734375 C 4.765625 -9.734375 5.613281 -9.566406 6.40625 -9.234375 L 6.15625 -8.65625 C 5.363281 -8.988281 4.601562 -9.15625 3.875 -9.15625 C 3.164062 -9.15625 2.597656 -8.988281 2.171875 -8.65625 C 1.753906 -8.332031 1.546875 -7.882812 1.546875 -7.3125 C 1.546875 -6.957031 1.609375 -6.664062 1.734375 -6.4375 C 1.867188 -6.21875 2.082031 -6.015625 2.375 -5.828125 C 2.664062 -5.648438 3.171875 -5.429688 3.890625 -5.171875 C 4.640625 -4.910156 5.203125 -4.660156 5.578125 -4.421875 C 5.953125 -4.179688 6.222656 -3.90625 6.390625 -3.59375 C 6.566406 -3.289062 6.65625 -2.914062 6.65625 -2.46875 Z M 6.65625 -2.46875 "/></g></g></g><g fill="rgb(96.469116%, 90.589905%, 84.709167%)" fill-opacity="1"><g transform="translate(299.293103, 549.106187)"><g><path d="M 4.046875 0.125 C 3.023438 0.125 2.222656 -0.191406 1.640625 -0.828125 C 1.066406 -1.472656 0.78125 -2.375 0.78125 -3.53125 C 0.78125 -4.707031 1.078125 -5.625 1.671875 -6.28125 C 2.273438 -6.945312 3.097656 -7.28125 4.140625 -7.28125 C 4.765625 -7.28125 5.359375 -7.171875 5.921875 -6.953125 L 5.734375 -6.375 C 5.117188 -6.582031 4.582031 -6.6875 4.125 -6.6875 C 3.25 -6.6875 2.585938 -6.414062 2.140625 -5.875 C 1.691406 -5.332031 1.46875 -4.554688 1.46875 -3.546875 C 1.46875 -2.578125 1.691406 -1.816406 2.140625 -1.265625 C 2.585938 -0.722656 3.21875 -0.453125 4.03125 -0.453125 C 4.675781 -0.453125 5.28125 -0.570312 5.84375 -0.8125 L 5.84375 -0.203125 C 5.382812 0.015625 4.785156 0.125 4.046875 0.125 Z M 4.046875 0.125 "/></g></g></g><g fill="rgb(96.469116%, 90.589905%, 84.709167%)" fill-opacity="1"><g transform="translate(305.682726, 549.106187)"><g><path d="M 4 -7.28125 C 4.300781 -7.28125 4.628906 -7.25 4.984375 -7.1875 L 4.859375 -6.5625 C 4.554688 -6.632812 4.242188 -6.671875 3.921875 -6.671875 C 3.316406 -6.671875 2.816406 -6.410156 2.421875 -5.890625 C 2.035156 -5.378906 1.84375 -4.726562 1.84375 -3.9375 L 1.84375 0 L 1.203125 0 L 1.203125 -7.140625 L 1.75 -7.140625 L 1.8125 -5.859375 L 1.859375 -5.859375 C 2.148438 -6.378906 2.460938 -6.742188 2.796875 -6.953125 C 3.128906 -7.171875 3.53125 -7.28125 4 -7.28125 Z M 4 -7.28125 "/></g></g></g><g fill="rgb(96.469116%, 90.589905%, 84.709167%)" fill-opacity="1"><g transform="translate(310.91657, 549.106187)"><g><path d="M 1.84375 0 L 1.203125 0 L 1.203125 -7.140625 L 1.84375 -7.140625 Z M 1.109375 -9.125 C 1.109375 -9.539062 1.242188 -9.75 1.515625 -9.75 C 1.648438 -9.75 1.753906 -9.691406 1.828125 -9.578125 C 1.910156 -9.472656 1.953125 -9.320312 1.953125 -9.125 C 1.953125 -8.925781 1.910156 -8.769531 1.828125 -8.65625 C 1.753906 -8.539062 1.648438 -8.484375 1.515625 -8.484375 C 1.242188 -8.484375 1.109375 -8.695312 1.109375 -9.125 Z M 1.109375 -9.125 "/></g></g></g><g fill="rgb(96.469116%, 90.589905%, 84.709167%)" fill-opacity="1"><g transform="translate(313.95706, 549.106187)"><g><path d="M 4.25 0.125 C 3.144531 0.125 2.34375 -0.285156 1.84375 -1.109375 L 1.796875 -1.109375 L 1.8125 -0.546875 C 1.832031 -0.222656 1.84375 0.128906 1.84375 0.515625 L 1.84375 3.234375 L 1.203125 3.234375 L 1.203125 -7.140625 L 1.75 -7.140625 L 1.875 -6.125 L 1.90625 -6.125 C 2.394531 -6.894531 3.179688 -7.28125 4.265625 -7.28125 C 5.222656 -7.28125 5.953125 -6.960938 6.453125 -6.328125 C 6.960938 -5.691406 7.21875 -4.769531 7.21875 -3.5625 C 7.21875 -2.394531 6.953125 -1.488281 6.421875 -0.84375 C 5.890625 -0.195312 5.164062 0.125 4.25 0.125 Z M 4.234375 -0.453125 C 4.960938 -0.453125 5.523438 -0.722656 5.921875 -1.265625 C 6.328125 -1.804688 6.53125 -2.566406 6.53125 -3.546875 C 6.53125 -5.640625 5.773438 -6.6875 4.265625 -6.6875 C 3.429688 -6.6875 2.816406 -6.457031 2.421875 -6 C 2.035156 -5.539062 1.84375 -4.796875 1.84375 -3.765625 L 1.84375 -3.546875 C 1.84375 -2.429688 2.03125 -1.632812 2.40625 -1.15625 C 2.78125 -0.6875 3.390625 -0.453125 4.234375 -0.453125 Z M 4.234375 -0.453125 "/></g></g></g><g fill="rgb(96.469116%, 90.589905%, 84.709167%)" fill-opacity="1"><g transform="translate(321.962148, 549.106187)"><g><path d="M 3.078125 -0.453125 C 3.492188 -0.453125 3.851562 -0.484375 4.15625 -0.546875 L 4.15625 -0.03125 C 3.84375 0.0703125 3.476562 0.125 3.0625 0.125 C 2.4375 0.125 1.972656 -0.0390625 1.671875 -0.375 C 1.367188 -0.707031 1.21875 -1.238281 1.21875 -1.96875 L 1.21875 -6.578125 L 0.171875 -6.578125 L 0.171875 -6.953125 L 1.21875 -7.25 L 1.546875 -8.875 L 1.890625 -8.875 L 1.890625 -7.140625 L 3.984375 -7.140625 L 3.984375 -6.578125 L 1.890625 -6.578125 L 1.890625 -2.0625 C 1.890625 -1.507812 1.984375 -1.101562 2.171875 -0.84375 C 2.367188 -0.582031 2.671875 -0.453125 3.078125 -0.453125 Z M 3.078125 -0.453125 "/></g></g></g><g fill="rgb(96.469116%, 90.589905%, 84.709167%)" fill-opacity="1"><g transform="translate(338.045704, 549.106187)"><g><path d="M 1.359375 -9.609375 L 4 -9.609375 C 5.1875 -9.609375 6.054688 -9.40625 6.609375 -9 C 7.160156 -8.59375 7.4375 -7.984375 7.4375 -7.171875 C 7.4375 -6.617188 7.265625 -6.15625 6.921875 -5.78125 C 6.585938 -5.414062 6.097656 -5.179688 5.453125 -5.078125 L 5.453125 -5.03125 C 6.210938 -4.914062 6.769531 -4.671875 7.125 -4.296875 C 7.488281 -3.929688 7.671875 -3.421875 7.671875 -2.765625 C 7.671875 -1.878906 7.378906 -1.195312 6.796875 -0.71875 C 6.210938 -0.238281 5.378906 0 4.296875 0 L 1.359375 0 Z M 2.03125 -5.328125 L 4.140625 -5.328125 C 5.046875 -5.328125 5.703125 -5.476562 6.109375 -5.78125 C 6.523438 -6.082031 6.734375 -6.550781 6.734375 -7.1875 C 6.734375 -7.820312 6.5 -8.285156 6.03125 -8.578125 C 5.570312 -8.867188 4.882812 -9.015625 3.96875 -9.015625 L 2.03125 -9.015625 Z M 2.03125 -4.734375 L 2.03125 -0.59375 L 4.296875 -0.59375 C 6.066406 -0.59375 6.953125 -1.316406 6.953125 -2.765625 C 6.953125 -4.078125 6.015625 -4.734375 4.140625 -4.734375 Z M 2.03125 -4.734375 "/></g></g></g><g fill="rgb(96.469116%, 90.589905%, 84.709167%)" fill-opacity="1"><g transform="translate(346.477638, 549.106187)"><g><path d="M 7.09375 -3.578125 C 7.09375 -2.410156 6.8125 -1.5 6.25 -0.84375 C 5.6875 -0.195312 4.910156 0.125 3.921875 0.125 C 3.285156 0.125 2.726562 -0.0234375 2.25 -0.328125 C 1.78125 -0.628906 1.414062 -1.0625 1.15625 -1.625 C 0.90625 -2.1875 0.78125 -2.835938 0.78125 -3.578125 C 0.78125 -4.742188 1.0625 -5.648438 1.625 -6.296875 C 2.1875 -6.953125 2.960938 -7.28125 3.953125 -7.28125 C 4.929688 -7.28125 5.695312 -6.945312 6.25 -6.28125 C 6.8125 -5.625 7.09375 -4.722656 7.09375 -3.578125 Z M 1.46875 -3.578125 C 1.46875 -2.597656 1.679688 -1.832031 2.109375 -1.28125 C 2.546875 -0.726562 3.15625 -0.453125 3.9375 -0.453125 C 4.726562 -0.453125 5.335938 -0.726562 5.765625 -1.28125 C 6.203125 -1.832031 6.421875 -2.597656 6.421875 -3.578125 C 6.421875 -4.566406 6.203125 -5.332031 5.765625 -5.875 C 5.328125 -6.414062 4.710938 -6.6875 3.921875 -6.6875 C 3.140625 -6.6875 2.535156 -6.414062 2.109375 -5.875 C 1.679688 -5.332031 1.46875 -4.566406 1.46875 -3.578125 Z M 1.46875 -3.578125 "/></g></g></g><g fill="rgb(96.469116%, 90.589905%, 84.709167%)" fill-opacity="1"><g transform="translate(354.35795, 549.106187)"><g><path d="M 7.09375 -3.578125 C 7.09375 -2.410156 6.8125 -1.5 6.25 -0.84375 C 5.6875 -0.195312 4.910156 0.125 3.921875 0.125 C 3.285156 0.125 2.726562 -0.0234375 2.25 -0.328125 C 1.78125 -0.628906 1.414062 -1.0625 1.15625 -1.625 C 0.90625 -2.1875 0.78125 -2.835938 0.78125 -3.578125 C 0.78125 -4.742188 1.0625 -5.648438 1.625 -6.296875 C 2.1875 -6.953125 2.960938 -7.28125 3.953125 -7.28125 C 4.929688 -7.28125 5.695312 -6.945312 6.25 -6.28125 C 6.8125 -5.625 7.09375 -4.722656 7.09375 -3.578125 Z M 1.46875 -3.578125 C 1.46875 -2.597656 1.679688 -1.832031 2.109375 -1.28125 C 2.546875 -0.726562 3.15625 -0.453125 3.9375 -0.453125 C 4.726562 -0.453125 5.335938 -0.726562 5.765625 -1.28125 C 6.203125 -1.832031 6.421875 -2.597656 6.421875 -3.578125 C 6.421875 -4.566406 6.203125 -5.332031 5.765625 -5.875 C 5.328125 -6.414062 4.710938 -6.6875 3.921875 -6.6875 C 3.140625 -6.6875 2.535156 -6.414062 2.109375 -5.875 C 1.679688 -5.332031 1.46875 -4.566406 1.46875 -3.578125 Z M 1.46875 -3.578125 "/></g></g></g><g fill="rgb(96.469116%, 90.589905%, 84.709167%)" fill-opacity="1"><g transform="translate(362.238261, 549.106187)"><g><path d="M 3.078125 -0.453125 C 3.492188 -0.453125 3.851562 -0.484375 4.15625 -0.546875 L 4.15625 -0.03125 C 3.84375 0.0703125 3.476562 0.125 3.0625 0.125 C 2.4375 0.125 1.972656 -0.0390625 1.671875 -0.375 C 1.367188 -0.707031 1.21875 -1.238281 1.21875 -1.96875 L 1.21875 -6.578125 L 0.171875 -6.578125 L 0.171875 -6.953125 L 1.21875 -7.25 L 1.546875 -8.875 L 1.890625 -8.875 L 1.890625 -7.140625 L 3.984375 -7.140625 L 3.984375 -6.578125 L 1.890625 -6.578125 L 1.890625 -2.0625 C 1.890625 -1.507812 1.984375 -1.101562 2.171875 -0.84375 C 2.367188 -0.582031 2.671875 -0.453125 3.078125 -0.453125 Z M 3.078125 -0.453125 "/></g></g></g><g fill="rgb(96.469116%, 90.589905%, 84.709167%)" fill-opacity="1"><g transform="translate(366.743173, 549.106187)"><g><path d="M 6.65625 -2.46875 C 6.65625 -1.675781 6.359375 -1.046875 5.765625 -0.578125 C 5.179688 -0.109375 4.398438 0.125 3.421875 0.125 C 2.253906 0.125 1.359375 0 0.734375 -0.25 L 0.734375 -0.921875 C 1.421875 -0.628906 2.300781 -0.484375 3.375 -0.484375 C 4.164062 -0.484375 4.789062 -0.660156 5.25 -1.015625 C 5.707031 -1.378906 5.9375 -1.859375 5.9375 -2.453125 C 5.9375 -2.816406 5.859375 -3.117188 5.703125 -3.359375 C 5.554688 -3.597656 5.3125 -3.8125 4.96875 -4 C 4.625 -4.195312 4.113281 -4.410156 3.4375 -4.640625 C 2.457031 -4.984375 1.78125 -5.347656 1.40625 -5.734375 C 1.03125 -6.128906 0.84375 -6.648438 0.84375 -7.296875 C 0.84375 -8.015625 1.125 -8.597656 1.6875 -9.046875 C 2.25 -9.503906 2.972656 -9.734375 3.859375 -9.734375 C 4.765625 -9.734375 5.613281 -9.566406 6.40625 -9.234375 L 6.15625 -8.65625 C 5.363281 -8.988281 4.601562 -9.15625 3.875 -9.15625 C 3.164062 -9.15625 2.597656 -8.988281 2.171875 -8.65625 C 1.753906 -8.332031 1.546875 -7.882812 1.546875 -7.3125 C 1.546875 -6.957031 1.609375 -6.664062 1.734375 -6.4375 C 1.867188 -6.21875 2.082031 -6.015625 2.375 -5.828125 C 2.664062 -5.648438 3.171875 -5.429688 3.890625 -5.171875 C 4.640625 -4.910156 5.203125 -4.660156 5.578125 -4.421875 C 5.953125 -4.179688 6.222656 -3.90625 6.390625 -3.59375 C 6.566406 -3.289062 6.65625 -2.914062 6.65625 -2.46875 Z M 6.65625 -2.46875 "/></g></g></g><g fill="rgb(96.469116%, 90.589905%, 84.709167%)" fill-opacity="1"><g transform="translate(374.071863, 549.106187)"><g><path d="M 3.078125 -0.453125 C 3.492188 -0.453125 3.851562 -0.484375 4.15625 -0.546875 L 4.15625 -0.03125 C 3.84375 0.0703125 3.476562 0.125 3.0625 0.125 C 2.4375 0.125 1.972656 -0.0390625 1.671875 -0.375 C 1.367188 -0.707031 1.21875 -1.238281 1.21875 -1.96875 L 1.21875 -6.578125 L 0.171875 -6.578125 L 0.171875 -6.953125 L 1.21875 -7.25 L 1.546875 -8.875 L 1.890625 -8.875 L 1.890625 -7.140625 L 3.984375 -7.140625 L 3.984375 -6.578125 L 1.890625 -6.578125 L 1.890625 -2.0625 C 1.890625 -1.507812 1.984375 -1.101562 2.171875 -0.84375 C 2.367188 -0.582031 2.671875 -0.453125 3.078125 -0.453125 Z M 3.078125 -0.453125 "/></g></g></g><g fill="rgb(96.469116%, 90.589905%, 84.709167%)" fill-opacity="1"><g transform="translate(378.576775, 549.106187)"><g><path d="M 4 -7.28125 C 4.300781 -7.28125 4.628906 -7.25 4.984375 -7.1875 L 4.859375 -6.5625 C 4.554688 -6.632812 4.242188 -6.671875 3.921875 -6.671875 C 3.316406 -6.671875 2.816406 -6.410156 2.421875 -5.890625 C 2.035156 -5.378906 1.84375 -4.726562 1.84375 -3.9375 L 1.84375 0 L 1.203125 0 L 1.203125 -7.140625 L 1.75 -7.140625 L 1.8125 -5.859375 L 1.859375 -5.859375 C 2.148438 -6.378906 2.460938 -6.742188 2.796875 -6.953125 C 3.128906 -7.171875 3.53125 -7.28125 4 -7.28125 Z M 4 -7.28125 "/></g></g></g><g fill="rgb(96.469116%, 90.589905%, 84.709167%)" fill-opacity="1"><g transform="translate(383.810619, 549.106187)"><g><path d="M 5.53125 0 L 5.359375 -1.125 L 5.3125 -1.125 C 4.957031 -0.664062 4.585938 -0.34375 4.203125 -0.15625 C 3.828125 0.03125 3.378906 0.125 2.859375 0.125 C 2.160156 0.125 1.613281 -0.0507812 1.21875 -0.40625 C 0.832031 -0.769531 0.640625 -1.265625 0.640625 -1.890625 C 0.640625 -2.585938 0.929688 -3.128906 1.515625 -3.515625 C 2.097656 -3.898438 2.9375 -4.101562 4.03125 -4.125 L 5.390625 -4.171875 L 5.390625 -4.640625 C 5.390625 -5.316406 5.25 -5.828125 4.96875 -6.171875 C 4.695312 -6.523438 4.253906 -6.703125 3.640625 -6.703125 C 2.984375 -6.703125 2.300781 -6.519531 1.59375 -6.15625 L 1.34375 -6.71875 C 2.125 -7.082031 2.898438 -7.265625 3.671875 -7.265625 C 4.453125 -7.265625 5.035156 -7.0625 5.421875 -6.65625 C 5.816406 -6.25 6.015625 -5.613281 6.015625 -4.75 L 6.015625 0 Z M 2.90625 -0.453125 C 3.664062 -0.453125 4.265625 -0.671875 4.703125 -1.109375 C 5.140625 -1.546875 5.359375 -2.15625 5.359375 -2.9375 L 5.359375 -3.625 L 4.125 -3.578125 C 3.113281 -3.523438 2.394531 -3.367188 1.96875 -3.109375 C 1.539062 -2.847656 1.328125 -2.4375 1.328125 -1.875 C 1.328125 -1.425781 1.460938 -1.078125 1.734375 -0.828125 C 2.015625 -0.578125 2.40625 -0.453125 2.90625 -0.453125 Z M 2.90625 -0.453125 "/></g></g></g><g fill="rgb(96.469116%, 90.589905%, 84.709167%)" fill-opacity="1"><g transform="translate(390.935738, 549.106187)"><g><path d="M 4.25 0.125 C 3.144531 0.125 2.34375 -0.285156 1.84375 -1.109375 L 1.796875 -1.109375 L 1.8125 -0.546875 C 1.832031 -0.222656 1.84375 0.128906 1.84375 0.515625 L 1.84375 3.234375 L 1.203125 3.234375 L 1.203125 -7.140625 L 1.75 -7.140625 L 1.875 -6.125 L 1.90625 -6.125 C 2.394531 -6.894531 3.179688 -7.28125 4.265625 -7.28125 C 5.222656 -7.28125 5.953125 -6.960938 6.453125 -6.328125 C 6.960938 -5.691406 7.21875 -4.769531 7.21875 -3.5625 C 7.21875 -2.394531 6.953125 -1.488281 6.421875 -0.84375 C 5.890625 -0.195312 5.164062 0.125 4.25 0.125 Z M 4.234375 -0.453125 C 4.960938 -0.453125 5.523438 -0.722656 5.921875 -1.265625 C 6.328125 -1.804688 6.53125 -2.566406 6.53125 -3.546875 C 6.53125 -5.640625 5.773438 -6.6875 4.265625 -6.6875 C 3.429688 -6.6875 2.816406 -6.457031 2.421875 -6 C 2.035156 -5.539062 1.84375 -4.796875 1.84375 -3.765625 L 1.84375 -3.546875 C 1.84375 -2.429688 2.03125 -1.632812 2.40625 -1.15625 C 2.78125 -0.6875 3.390625 -0.453125 4.234375 -0.453125 Z M 4.234375 -0.453125 "/></g></g></g><g fill="rgb(96.469116%, 90.589905%, 84.709167%)" fill-opacity="1"><g transform="translate(430.36689, 549.106187)"><g><path d="M 5.453125 -9.140625 C 4.253906 -9.140625 3.304688 -8.753906 2.609375 -7.984375 C 1.921875 -7.210938 1.578125 -6.15625 1.578125 -4.8125 C 1.578125 -3.445312 1.898438 -2.382812 2.546875 -1.625 C 3.203125 -0.863281 4.140625 -0.484375 5.359375 -0.484375 C 6.160156 -0.484375 6.898438 -0.585938 7.578125 -0.796875 L 7.578125 -0.203125 C 6.941406 0.015625 6.148438 0.125 5.203125 0.125 C 3.847656 0.125 2.78125 -0.304688 2 -1.171875 C 1.226562 -2.046875 0.84375 -3.265625 0.84375 -4.828125 C 0.84375 -5.804688 1.023438 -6.664062 1.390625 -7.40625 C 1.765625 -8.15625 2.300781 -8.726562 3 -9.125 C 3.695312 -9.53125 4.503906 -9.734375 5.421875 -9.734375 C 6.359375 -9.734375 7.195312 -9.5625 7.9375 -9.21875 L 7.671875 -8.609375 C 6.960938 -8.960938 6.222656 -9.140625 5.453125 -9.140625 Z M 5.453125 -9.140625 "/></g></g></g><g fill="rgb(96.469116%, 90.589905%, 84.709167%)" fill-opacity="1"><g transform="translate(438.72002, 549.106187)"><g><path d="M 6.359375 -6.09375 L 5.859375 -3.484375 L 7.84375 -3.484375 L 7.84375 -2.96875 L 5.734375 -2.96875 L 5.171875 0 L 4.578125 0 L 5.15625 -2.96875 L 2.796875 -2.96875 L 2.234375 0 L 1.65625 0 L 2.21875 -2.96875 L 0.359375 -2.96875 L 0.359375 -3.484375 L 2.328125 -3.484375 L 2.828125 -6.09375 L 0.875 -6.09375 L 0.875 -6.625 L 2.921875 -6.625 L 3.484375 -9.609375 L 4.078125 -9.609375 L 3.5 -6.625 L 5.890625 -6.625 L 6.46875 -9.609375 L 7.03125 -9.609375 L 6.453125 -6.625 L 8.328125 -6.625 L 8.328125 -6.09375 Z M 2.890625 -3.484375 L 5.28125 -3.484375 L 5.78125 -6.09375 L 3.40625 -6.09375 Z M 2.890625 -3.484375 "/></g></g></g><g fill="rgb(96.469116%, 90.589905%, 84.709167%)" fill-opacity="1"><g transform="translate(479.571676, 549.106187)"><g><path d="M 5.984375 -3.390625 L 2.078125 -3.390625 L 0.75 0 L 0 0 L 3.859375 -9.640625 L 4.296875 -9.640625 L 8.078125 0 L 7.3125 0 Z M 2.328125 -4 L 5.765625 -4 L 4.453125 -7.453125 C 4.347656 -7.722656 4.21875 -8.097656 4.0625 -8.578125 C 3.9375 -8.160156 3.804688 -7.78125 3.671875 -7.4375 Z M 2.328125 -4 "/></g></g></g><g fill="rgb(96.469116%, 90.589905%, 84.709167%)" fill-opacity="1"><g transform="translate(487.642433, 549.106187)"><g><path d="M 6.65625 -2.46875 C 6.65625 -1.675781 6.359375 -1.046875 5.765625 -0.578125 C 5.179688 -0.109375 4.398438 0.125 3.421875 0.125 C 2.253906 0.125 1.359375 0 0.734375 -0.25 L 0.734375 -0.921875 C 1.421875 -0.628906 2.300781 -0.484375 3.375 -0.484375 C 4.164062 -0.484375 4.789062 -0.660156 5.25 -1.015625 C 5.707031 -1.378906 5.9375 -1.859375 5.9375 -2.453125 C 5.9375 -2.816406 5.859375 -3.117188 5.703125 -3.359375 C 5.554688 -3.597656 5.3125 -3.8125 4.96875 -4 C 4.625 -4.195312 4.113281 -4.410156 3.4375 -4.640625 C 2.457031 -4.984375 1.78125 -5.347656 1.40625 -5.734375 C 1.03125 -6.128906 0.84375 -6.648438 0.84375 -7.296875 C 0.84375 -8.015625 1.125 -8.597656 1.6875 -9.046875 C 2.25 -9.503906 2.972656 -9.734375 3.859375 -9.734375 C 4.765625 -9.734375 5.613281 -9.566406 6.40625 -9.234375 L 6.15625 -8.65625 C 5.363281 -8.988281 4.601562 -9.15625 3.875 -9.15625 C 3.164062 -9.15625 2.597656 -8.988281 2.171875 -8.65625 C 1.753906 -8.332031 1.546875 -7.882812 1.546875 -7.3125 C 1.546875 -6.957031 1.609375 -6.664062 1.734375 -6.4375 C 1.867188 -6.21875 2.082031 -6.015625 2.375 -5.828125 C 2.664062 -5.648438 3.171875 -5.429688 3.890625 -5.171875 C 4.640625 -4.910156 5.203125 -4.660156 5.578125 -4.421875 C 5.953125 -4.179688 6.222656 -3.90625 6.390625 -3.59375 C 6.566406 -3.289062 6.65625 -2.914062 6.65625 -2.46875 Z M 6.65625 -2.46875 "/></g></g></g><g fill="rgb(96.469116%, 90.589905%, 84.709167%)" fill-opacity="1"><g transform="translate(494.971123, 549.106187)"><g><path d="M 7.140625 -6.84375 C 7.140625 -5.914062 6.820312 -5.203125 6.1875 -4.703125 C 5.5625 -4.210938 4.671875 -3.96875 3.515625 -3.96875 L 2.03125 -3.96875 L 2.03125 0 L 1.359375 0 L 1.359375 -9.609375 L 3.71875 -9.609375 C 6 -9.609375 7.140625 -8.6875 7.140625 -6.84375 Z M 2.03125 -4.546875 L 3.34375 -4.546875 C 4.425781 -4.546875 5.207031 -4.722656 5.6875 -5.078125 C 6.175781 -5.429688 6.421875 -6.007812 6.421875 -6.8125 C 6.421875 -7.550781 6.191406 -8.097656 5.734375 -8.453125 C 5.273438 -8.816406 4.570312 -9 3.625 -9 L 2.03125 -9 Z M 2.03125 -4.546875 "/></g></g></g><g fill="rgb(96.469116%, 90.589905%, 84.709167%)" fill-opacity="1"><g transform="translate(502.838301, 549.106187)"><g><path d="M 1.0625 -0.515625 C 1.0625 -0.941406 1.238281 -1.15625 1.59375 -1.15625 C 1.945312 -1.15625 2.125 -0.941406 2.125 -0.515625 C 2.125 -0.0859375 1.945312 0.125 1.59375 0.125 C 1.238281 0.125 1.0625 -0.0859375 1.0625 -0.515625 Z M 1.0625 -0.515625 "/></g></g></g><g fill="rgb(96.469116%, 90.589905%, 84.709167%)" fill-opacity="1"><g transform="translate(506.036398, 549.106187)"><g><path d="M 8.34375 0 L 7.671875 0 L 1.984375 -8.53125 L 1.921875 -8.53125 C 1.972656 -7.507812 2 -6.742188 2 -6.234375 L 2 0 L 1.359375 0 L 1.359375 -9.609375 L 2.03125 -9.609375 L 7.71875 -1.09375 L 7.75 -1.09375 C 7.707031 -1.875 7.6875 -2.625 7.6875 -3.34375 L 7.6875 -9.609375 L 8.34375 -9.609375 Z M 8.34375 0 "/></g></g></g><g fill="rgb(96.469116%, 90.589905%, 84.709167%)" fill-opacity="1"><g transform="translate(515.735752, 549.106187)"><g><path d="M 6.609375 0 L 1.359375 0 L 1.359375 -9.609375 L 6.609375 -9.609375 L 6.609375 -8.984375 L 2.03125 -8.984375 L 2.03125 -5.359375 L 6.359375 -5.359375 L 6.359375 -4.734375 L 2.03125 -4.734375 L 2.03125 -0.625 L 6.609375 -0.625 Z M 6.609375 0 "/></g></g></g><g fill="rgb(96.469116%, 90.589905%, 84.709167%)" fill-opacity="1"><g transform="translate(523.156379, 549.106187)"><g><path d="M 3.859375 0 L 3.1875 0 L 3.1875 -8.96875 L 0.0625 -8.96875 L 0.0625 -9.609375 L 6.984375 -9.609375 L 6.984375 -8.96875 L 3.859375 -8.96875 Z M 3.859375 0 "/></g></g></g><g fill="rgb(96.469116%, 90.589905%, 84.709167%)" fill-opacity="1"><g transform="translate(562.578108, 549.106187)"><g><path d="M 7.140625 -6.84375 C 7.140625 -5.914062 6.820312 -5.203125 6.1875 -4.703125 C 5.5625 -4.210938 4.671875 -3.96875 3.515625 -3.96875 L 2.03125 -3.96875 L 2.03125 0 L 1.359375 0 L 1.359375 -9.609375 L 3.71875 -9.609375 C 6 -9.609375 7.140625 -8.6875 7.140625 -6.84375 Z M 2.03125 -4.546875 L 3.34375 -4.546875 C 4.425781 -4.546875 5.207031 -4.722656 5.6875 -5.078125 C 6.175781 -5.429688 6.421875 -6.007812 6.421875 -6.8125 C 6.421875 -7.550781 6.191406 -8.097656 5.734375 -8.453125 C 5.273438 -8.816406 4.570312 -9 3.625 -9 L 2.03125 -9 Z M 2.03125 -4.546875 "/></g></g></g><g fill="rgb(96.469116%, 90.589905%, 84.709167%)" fill-opacity="1"><g transform="translate(570.445286, 549.106187)"><g><path d="M 8.3125 0 L 7.640625 0 L 7.640625 -4.71875 L 2.03125 -4.71875 L 2.03125 0 L 1.359375 0 L 1.359375 -9.609375 L 2.03125 -9.609375 L 2.03125 -5.34375 L 7.640625 -5.34375 L 7.640625 -9.609375 L 8.3125 -9.609375 Z M 8.3125 0 "/></g></g></g><g fill="rgb(96.469116%, 90.589905%, 84.709167%)" fill-opacity="1"><g transform="translate(580.118372, 549.106187)"><g><path d="M 7.140625 -6.84375 C 7.140625 -5.914062 6.820312 -5.203125 6.1875 -4.703125 C 5.5625 -4.210938 4.671875 -3.96875 3.515625 -3.96875 L 2.03125 -3.96875 L 2.03125 0 L 1.359375 0 L 1.359375 -9.609375 L 3.71875 -9.609375 C 6 -9.609375 7.140625 -8.6875 7.140625 -6.84375 Z M 2.03125 -4.546875 L 3.34375 -4.546875 C 4.425781 -4.546875 5.207031 -4.722656 5.6875 -5.078125 C 6.175781 -5.429688 6.421875 -6.007812 6.421875 -6.8125 C 6.421875 -7.550781 6.191406 -8.097656 5.734375 -8.453125 C 5.273438 -8.816406 4.570312 -9 3.625 -9 L 2.03125 -9 Z M 2.03125 -4.546875 "/></g></g></g><g fill="rgb(96.469116%, 90.589905%, 84.709167%)" fill-opacity="1"><g transform="translate(625.546412, 549.106187)"><g><path d="M 5.578125 0 L 2 -8.875 L 1.953125 -8.875 C 1.984375 -8.320312 2 -7.765625 2 -7.203125 L 2 0 L 1.359375 0 L 1.359375 -9.609375 L 2.390625 -9.609375 L 5.796875 -1.15625 L 5.84375 -1.15625 L 9.25 -9.609375 L 10.25 -9.609375 L 10.25 0 L 9.578125 0 L 9.578125 -7.28125 C 9.578125 -7.789062 9.601562 -8.316406 9.65625 -8.859375 L 9.609375 -8.859375 L 6.015625 0 Z M 5.578125 0 "/></g></g></g><g fill="rgb(96.469116%, 90.589905%, 84.709167%)" fill-opacity="1"><g transform="translate(637.150175, 549.106187)"><g><path d="M 0 -7.140625 L 0.671875 -7.140625 L 2.1875 -3.140625 C 2.644531 -1.898438 2.929688 -1.066406 3.046875 -0.640625 L 3.09375 -0.640625 C 3.28125 -1.203125 3.582031 -2.046875 4 -3.171875 L 5.5 -7.140625 L 6.171875 -7.140625 L 2.96875 1.15625 C 2.71875 1.832031 2.503906 2.285156 2.328125 2.515625 C 2.148438 2.753906 1.941406 2.929688 1.703125 3.046875 C 1.472656 3.171875 1.191406 3.234375 0.859375 3.234375 C 0.609375 3.234375 0.332031 3.1875 0.03125 3.09375 L 0.03125 2.53125 C 0.28125 2.601562 0.550781 2.640625 0.84375 2.640625 C 1.070312 2.640625 1.269531 2.582031 1.4375 2.46875 C 1.601562 2.363281 1.753906 2.203125 1.890625 1.984375 C 2.035156 1.765625 2.195312 1.414062 2.375 0.9375 C 2.5625 0.457031 2.679688 0.144531 2.734375 0 Z M 0 -7.140625 "/></g></g></g><g fill="rgb(96.469116%, 90.589905%, 84.709167%)" fill-opacity="1"><g transform="translate(643.323086, 549.106187)"><g><path d="M 6.65625 -2.46875 C 6.65625 -1.675781 6.359375 -1.046875 5.765625 -0.578125 C 5.179688 -0.109375 4.398438 0.125 3.421875 0.125 C 2.253906 0.125 1.359375 0 0.734375 -0.25 L 0.734375 -0.921875 C 1.421875 -0.628906 2.300781 -0.484375 3.375 -0.484375 C 4.164062 -0.484375 4.789062 -0.660156 5.25 -1.015625 C 5.707031 -1.378906 5.9375 -1.859375 5.9375 -2.453125 C 5.9375 -2.816406 5.859375 -3.117188 5.703125 -3.359375 C 5.554688 -3.597656 5.3125 -3.8125 4.96875 -4 C 4.625 -4.195312 4.113281 -4.410156 3.4375 -4.640625 C 2.457031 -4.984375 1.78125 -5.347656 1.40625 -5.734375 C 1.03125 -6.128906 0.84375 -6.648438 0.84375 -7.296875 C 0.84375 -8.015625 1.125 -8.597656 1.6875 -9.046875 C 2.25 -9.503906 2.972656 -9.734375 3.859375 -9.734375 C 4.765625 -9.734375 5.613281 -9.566406 6.40625 -9.234375 L 6.15625 -8.65625 C 5.363281 -8.988281 4.601562 -9.15625 3.875 -9.15625 C 3.164062 -9.15625 2.597656 -8.988281 2.171875 -8.65625 C 1.753906 -8.332031 1.546875 -7.882812 1.546875 -7.3125 C 1.546875 -6.957031 1.609375 -6.664062 1.734375 -6.4375 C 1.867188 -6.21875 2.082031 -6.015625 2.375 -5.828125 C 2.664062 -5.648438 3.171875 -5.429688 3.890625 -5.171875 C 4.640625 -4.910156 5.203125 -4.660156 5.578125 -4.421875 C 5.953125 -4.179688 6.222656 -3.90625 6.390625 -3.59375 C 6.566406 -3.289062 6.65625 -2.914062 6.65625 -2.46875 Z M 6.65625 -2.46875 "/></g></g></g><g fill="rgb(96.469116%, 90.589905%, 84.709167%)" fill-opacity="1"><g transform="translate(650.651777, 549.106187)"><g><path d="M 9.4375 -4.8125 C 9.4375 -3.53125 9.160156 -2.46875 8.609375 -1.625 C 8.054688 -0.78125 7.289062 -0.238281 6.3125 0 L 8.5 2.28125 L 7.40625 2.28125 L 5.5625 0.125 L 5.140625 0.125 C 3.804688 0.125 2.753906 -0.316406 1.984375 -1.203125 C 1.222656 -2.085938 0.84375 -3.296875 0.84375 -4.828125 C 0.84375 -6.359375 1.226562 -7.5625 2 -8.4375 C 2.769531 -9.3125 3.820312 -9.75 5.15625 -9.75 C 6.488281 -9.75 7.535156 -9.304688 8.296875 -8.421875 C 9.054688 -7.546875 9.4375 -6.34375 9.4375 -4.8125 Z M 1.578125 -4.8125 C 1.578125 -3.4375 1.882812 -2.375 2.5 -1.625 C 3.113281 -0.875 3.992188 -0.5 5.140625 -0.5 C 6.296875 -0.5 7.175781 -0.867188 7.78125 -1.609375 C 8.394531 -2.359375 8.703125 -3.425781 8.703125 -4.8125 C 8.703125 -6.195312 8.394531 -7.257812 7.78125 -8 C 7.175781 -8.738281 6.300781 -9.109375 5.15625 -9.109375 C 4.007812 -9.109375 3.125 -8.734375 2.5 -7.984375 C 1.882812 -7.242188 1.578125 -6.1875 1.578125 -4.8125 Z M 1.578125 -4.8125 "/></g></g></g><g fill="rgb(96.469116%, 90.589905%, 84.709167%)" fill-opacity="1"><g transform="translate(660.92902, 549.106187)"><g><path d="M 1.359375 0 L 1.359375 -9.609375 L 2.03125 -9.609375 L 2.03125 -0.625 L 6.609375 -0.625 L 6.609375 0 Z M 1.359375 0 "/></g></g></g><g fill="rgb(96.469116%, 90.589905%, 84.709167%)" fill-opacity="1"><g transform="translate(687.825157, 549.106187)"><g><path d="M 2.03125 -4.1875 L 2.03125 0 L 1.359375 0 L 1.359375 -9.609375 L 3.640625 -9.609375 C 4.835938 -9.609375 5.71875 -9.382812 6.28125 -8.9375 C 6.851562 -8.5 7.140625 -7.835938 7.140625 -6.953125 C 7.140625 -6.304688 6.96875 -5.757812 6.625 -5.3125 C 6.289062 -4.875 5.773438 -4.5625 5.078125 -4.375 L 7.6875 0 L 6.890625 0 L 4.421875 -4.1875 Z M 2.03125 -4.765625 L 3.859375 -4.765625 C 4.671875 -4.765625 5.300781 -4.941406 5.75 -5.296875 C 6.195312 -5.660156 6.421875 -6.195312 6.421875 -6.90625 C 6.421875 -7.632812 6.203125 -8.164062 5.765625 -8.5 C 5.328125 -8.832031 4.613281 -9 3.625 -9 L 2.03125 -9 Z M 2.03125 -4.765625 "/></g></g></g><g fill="rgb(96.469116%, 90.589905%, 84.709167%)" fill-opacity="1"><g transform="translate(695.81711, 549.106187)"><g><path d="M 4.078125 0.125 C 3.035156 0.125 2.222656 -0.191406 1.640625 -0.828125 C 1.066406 -1.460938 0.78125 -2.359375 0.78125 -3.515625 C 0.78125 -4.648438 1.0625 -5.5625 1.625 -6.25 C 2.1875 -6.9375 2.941406 -7.28125 3.890625 -7.28125 C 4.734375 -7.28125 5.394531 -6.984375 5.875 -6.390625 C 6.363281 -5.804688 6.609375 -5.007812 6.609375 -4 L 6.609375 -3.484375 L 1.46875 -3.484375 C 1.476562 -2.503906 1.707031 -1.753906 2.15625 -1.234375 C 2.601562 -0.710938 3.242188 -0.453125 4.078125 -0.453125 C 4.484375 -0.453125 4.835938 -0.476562 5.140625 -0.53125 C 5.453125 -0.59375 5.847656 -0.71875 6.328125 -0.90625 L 6.328125 -0.328125 C 5.921875 -0.148438 5.546875 -0.03125 5.203125 0.03125 C 4.867188 0.09375 4.492188 0.125 4.078125 0.125 Z M 3.890625 -6.703125 C 3.203125 -6.703125 2.648438 -6.472656 2.234375 -6.015625 C 1.816406 -5.566406 1.570312 -4.914062 1.5 -4.0625 L 5.921875 -4.0625 C 5.921875 -4.882812 5.738281 -5.53125 5.375 -6 C 5.019531 -6.46875 4.523438 -6.703125 3.890625 -6.703125 Z M 3.890625 -6.703125 "/></g></g></g><g fill="rgb(96.469116%, 90.589905%, 84.709167%)" fill-opacity="1"><g transform="translate(703.198336, 549.106187)"><g><path d="M 5.53125 0 L 5.359375 -1.125 L 5.3125 -1.125 C 4.957031 -0.664062 4.585938 -0.34375 4.203125 -0.15625 C 3.828125 0.03125 3.378906 0.125 2.859375 0.125 C 2.160156 0.125 1.613281 -0.0507812 1.21875 -0.40625 C 0.832031 -0.769531 0.640625 -1.265625 0.640625 -1.890625 C 0.640625 -2.585938 0.929688 -3.128906 1.515625 -3.515625 C 2.097656 -3.898438 2.9375 -4.101562 4.03125 -4.125 L 5.390625 -4.171875 L 5.390625 -4.640625 C 5.390625 -5.316406 5.25 -5.828125 4.96875 -6.171875 C 4.695312 -6.523438 4.253906 -6.703125 3.640625 -6.703125 C 2.984375 -6.703125 2.300781 -6.519531 1.59375 -6.15625 L 1.34375 -6.71875 C 2.125 -7.082031 2.898438 -7.265625 3.671875 -7.265625 C 4.453125 -7.265625 5.035156 -7.0625 5.421875 -6.65625 C 5.816406 -6.25 6.015625 -5.613281 6.015625 -4.75 L 6.015625 0 Z M 2.90625 -0.453125 C 3.664062 -0.453125 4.265625 -0.671875 4.703125 -1.109375 C 5.140625 -1.546875 5.359375 -2.15625 5.359375 -2.9375 L 5.359375 -3.625 L 4.125 -3.578125 C 3.113281 -3.523438 2.394531 -3.367188 1.96875 -3.109375 C 1.539062 -2.847656 1.328125 -2.4375 1.328125 -1.875 C 1.328125 -1.425781 1.460938 -1.078125 1.734375 -0.828125 C 2.015625 -0.578125 2.40625 -0.453125 2.90625 -0.453125 Z M 2.90625 -0.453125 "/></g></g></g><g fill="rgb(96.469116%, 90.589905%, 84.709167%)" fill-opacity="1"><g transform="translate(710.323455, 549.106187)"><g><path d="M 4.046875 0.125 C 3.023438 0.125 2.222656 -0.191406 1.640625 -0.828125 C 1.066406 -1.472656 0.78125 -2.375 0.78125 -3.53125 C 0.78125 -4.707031 1.078125 -5.625 1.671875 -6.28125 C 2.273438 -6.945312 3.097656 -7.28125 4.140625 -7.28125 C 4.765625 -7.28125 5.359375 -7.171875 5.921875 -6.953125 L 5.734375 -6.375 C 5.117188 -6.582031 4.582031 -6.6875 4.125 -6.6875 C 3.25 -6.6875 2.585938 -6.414062 2.140625 -5.875 C 1.691406 -5.332031 1.46875 -4.554688 1.46875 -3.546875 C 1.46875 -2.578125 1.691406 -1.816406 2.140625 -1.265625 C 2.585938 -0.722656 3.21875 -0.453125 4.03125 -0.453125 C 4.675781 -0.453125 5.28125 -0.570312 5.84375 -0.8125 L 5.84375 -0.203125 C 5.382812 0.015625 4.785156 0.125 4.046875 0.125 Z M 4.046875 0.125 "/></g></g></g><g fill="rgb(96.469116%, 90.589905%, 84.709167%)" fill-opacity="1"><g transform="translate(716.713078, 549.106187)"><g><path d="M 3.078125 -0.453125 C 3.492188 -0.453125 3.851562 -0.484375 4.15625 -0.546875 L 4.15625 -0.03125 C 3.84375 0.0703125 3.476562 0.125 3.0625 0.125 C 2.4375 0.125 1.972656 -0.0390625 1.671875 -0.375 C 1.367188 -0.707031 1.21875 -1.238281 1.21875 -1.96875 L 1.21875 -6.578125 L 0.171875 -6.578125 L 0.171875 -6.953125 L 1.21875 -7.25 L 1.546875 -8.875 L 1.890625 -8.875 L 1.890625 -7.140625 L 3.984375 -7.140625 L 3.984375 -6.578125 L 1.890625 -6.578125 L 1.890625 -2.0625 C 1.890625 -1.507812 1.984375 -1.101562 2.171875 -0.84375 C 2.367188 -0.582031 2.671875 -0.453125 3.078125 -0.453125 Z M 3.078125 -0.453125 "/></g></g></g><g fill="rgb(96.469116%, 90.589905%, 84.709167%)" fill-opacity="1"><g transform="translate(721.21799, 549.106187)"><g/></g></g><g fill="rgb(96.469116%, 90.589905%, 84.709167%)" fill-opacity="1"><g transform="translate(724.711595, 549.106187)"><g><path d="M -0.21875 2.421875 C -0.625 2.421875 -0.953125 2.363281 -1.203125 2.25 L -1.203125 1.671875 C -0.867188 1.753906 -0.546875 1.796875 -0.234375 1.796875 C 0.828125 1.796875 1.359375 1.21875 1.359375 0.0625 L 1.359375 -9.609375 L 2.03125 -9.609375 L 2.03125 0 C 2.03125 1.613281 1.28125 2.421875 -0.21875 2.421875 Z M -0.21875 2.421875 "/></g></g></g><g fill="rgb(96.469116%, 90.589905%, 84.709167%)" fill-opacity="1"><g transform="translate(728.03446, 549.106187)"><g><path d="M 6.65625 -2.46875 C 6.65625 -1.675781 6.359375 -1.046875 5.765625 -0.578125 C 5.179688 -0.109375 4.398438 0.125 3.421875 0.125 C 2.253906 0.125 1.359375 0 0.734375 -0.25 L 0.734375 -0.921875 C 1.421875 -0.628906 2.300781 -0.484375 3.375 -0.484375 C 4.164062 -0.484375 4.789062 -0.660156 5.25 -1.015625 C 5.707031 -1.378906 5.9375 -1.859375 5.9375 -2.453125 C 5.9375 -2.816406 5.859375 -3.117188 5.703125 -3.359375 C 5.554688 -3.597656 5.3125 -3.8125 4.96875 -4 C 4.625 -4.195312 4.113281 -4.410156 3.4375 -4.640625 C 2.457031 -4.984375 1.78125 -5.347656 1.40625 -5.734375 C 1.03125 -6.128906 0.84375 -6.648438 0.84375 -7.296875 C 0.84375 -8.015625 1.125 -8.597656 1.6875 -9.046875 C 2.25 -9.503906 2.972656 -9.734375 3.859375 -9.734375 C 4.765625 -9.734375 5.613281 -9.566406 6.40625 -9.234375 L 6.15625 -8.65625 C 5.363281 -8.988281 4.601562 -9.15625 3.875 -9.15625 C 3.164062 -9.15625 2.597656 -8.988281 2.171875 -8.65625 C 1.753906 -8.332031 1.546875 -7.882812 1.546875 -7.3125 C 1.546875 -6.957031 1.609375 -6.664062 1.734375 -6.4375 C 1.867188 -6.21875 2.082031 -6.015625 2.375 -5.828125 C 2.664062 -5.648438 3.171875 -5.429688 3.890625 -5.171875 C 4.640625 -4.910156 5.203125 -4.660156 5.578125 -4.421875 C 5.953125 -4.179688 6.222656 -3.90625 6.390625 -3.59375 C 6.566406 -3.289062 6.65625 -2.914062 6.65625 -2.46875 Z M 6.65625 -2.46875 "/></g></g></g><g fill="rgb(96.469116%, 90.589905%, 84.709167%)" fill-opacity="1"><g transform="translate(21.846093, 514.849991)"><g><path d="M 1.671875 -12.140625 L 5.09375 -12.140625 C 6.707031 -12.140625 7.875 -11.894531 8.59375 -11.40625 C 9.3125 -10.925781 9.671875 -10.164062 9.671875 -9.125 C 9.671875 -8.40625 9.46875 -7.8125 9.0625 -7.34375 C 8.664062 -6.882812 8.082031 -6.582031 7.3125 -6.4375 L 7.3125 -6.359375 C 9.15625 -6.046875 10.078125 -5.078125 10.078125 -3.453125 C 10.078125 -2.367188 9.707031 -1.519531 8.96875 -0.90625 C 8.238281 -0.300781 7.21875 0 5.90625 0 L 1.671875 0 Z M 3.078125 -6.9375 L 5.40625 -6.9375 C 6.394531 -6.9375 7.109375 -7.09375 7.546875 -7.40625 C 7.984375 -7.71875 8.203125 -8.242188 8.203125 -8.984375 C 8.203125 -9.671875 7.957031 -10.164062 7.46875 -10.46875 C 6.988281 -10.769531 6.21875 -10.921875 5.15625 -10.921875 L 3.078125 -10.921875 Z M 3.078125 -5.75 L 3.078125 -1.203125 L 5.609375 -1.203125 C 6.585938 -1.203125 7.320312 -1.390625 7.8125 -1.765625 C 8.3125 -2.148438 8.5625 -2.742188 8.5625 -3.546875 C 8.5625 -4.304688 8.304688 -4.863281 7.796875 -5.21875 C 7.296875 -5.570312 6.53125 -5.75 5.5 -5.75 Z M 3.078125 -5.75 "/></g></g></g><g fill="rgb(96.469116%, 90.589905%, 84.709167%)" fill-opacity="1"><g transform="translate(32.859967, 514.849991)"><g><path d="M 5.296875 0.171875 C 3.953125 0.171875 2.890625 -0.238281 2.109375 -1.0625 C 1.335938 -1.882812 0.953125 -3.019531 0.953125 -4.46875 C 0.953125 -5.9375 1.3125 -7.101562 2.03125 -7.96875 C 2.757812 -8.832031 3.734375 -9.265625 4.953125 -9.265625 C 6.085938 -9.265625 6.988281 -8.890625 7.65625 -8.140625 C 8.320312 -7.390625 8.65625 -6.398438 8.65625 -5.171875 L 8.65625 -4.296875 L 2.375 -4.296875 C 2.40625 -3.234375 2.675781 -2.421875 3.1875 -1.859375 C 3.695312 -1.304688 4.421875 -1.03125 5.359375 -1.03125 C 6.335938 -1.03125 7.304688 -1.238281 8.265625 -1.65625 L 8.265625 -0.421875 C 7.773438 -0.210938 7.3125 -0.0625 6.875 0.03125 C 6.4375 0.125 5.910156 0.171875 5.296875 0.171875 Z M 4.9375 -8.109375 C 4.195312 -8.109375 3.609375 -7.867188 3.171875 -7.390625 C 2.742188 -6.921875 2.492188 -6.265625 2.421875 -5.421875 L 7.171875 -5.421875 C 7.171875 -6.285156 6.976562 -6.945312 6.59375 -7.40625 C 6.207031 -7.875 5.65625 -8.109375 4.9375 -8.109375 Z M 4.9375 -8.109375 "/></g></g></g><g fill="rgb(96.469116%, 90.589905%, 84.709167%)" fill-opacity="1"><g transform="translate(42.396471, 514.849991)"><g><path d="M 8.90625 -9.09375 L 8.90625 -8.21875 L 7.21875 -8.03125 C 7.375 -7.832031 7.507812 -7.578125 7.625 -7.265625 C 7.75 -6.953125 7.8125 -6.597656 7.8125 -6.203125 C 7.8125 -5.316406 7.507812 -4.609375 6.90625 -4.078125 C 6.300781 -3.546875 5.46875 -3.28125 4.40625 -3.28125 C 4.132812 -3.28125 3.878906 -3.300781 3.640625 -3.34375 C 3.046875 -3.03125 2.75 -2.640625 2.75 -2.171875 C 2.75 -1.921875 2.851562 -1.734375 3.0625 -1.609375 C 3.269531 -1.492188 3.625 -1.4375 4.125 -1.4375 L 5.734375 -1.4375 C 6.710938 -1.4375 7.46875 -1.226562 8 -0.8125 C 8.53125 -0.40625 8.796875 0.191406 8.796875 0.984375 C 8.796875 1.992188 8.390625 2.757812 7.578125 3.28125 C 6.765625 3.8125 5.585938 4.078125 4.046875 4.078125 C 2.859375 4.078125 1.941406 3.851562 1.296875 3.40625 C 0.648438 2.96875 0.328125 2.347656 0.328125 1.546875 C 0.328125 0.992188 0.503906 0.515625 0.859375 0.109375 C 1.210938 -0.296875 1.707031 -0.570312 2.34375 -0.71875 C 2.113281 -0.820312 1.921875 -0.984375 1.765625 -1.203125 C 1.609375 -1.421875 1.53125 -1.675781 1.53125 -1.96875 C 1.53125 -2.300781 1.617188 -2.59375 1.796875 -2.84375 C 1.972656 -3.09375 2.25 -3.332031 2.625 -3.5625 C 2.15625 -3.757812 1.769531 -4.085938 1.46875 -4.546875 C 1.175781 -5.015625 1.03125 -5.550781 1.03125 -6.15625 C 1.03125 -7.144531 1.328125 -7.910156 1.921875 -8.453125 C 2.523438 -8.992188 3.375 -9.265625 4.46875 -9.265625 C 4.945312 -9.265625 5.378906 -9.207031 5.765625 -9.09375 Z M 1.65625 1.53125 C 1.65625 2.019531 1.859375 2.390625 2.265625 2.640625 C 2.679688 2.898438 3.28125 3.03125 4.0625 3.03125 C 5.21875 3.03125 6.070312 2.859375 6.625 2.515625 C 7.1875 2.171875 7.46875 1.703125 7.46875 1.109375 C 7.46875 0.609375 7.3125 0.265625 7 0.078125 C 6.695312 -0.109375 6.125 -0.203125 5.28125 -0.203125 L 3.640625 -0.203125 C 3.015625 -0.203125 2.523438 -0.0546875 2.171875 0.234375 C 1.828125 0.535156 1.65625 0.96875 1.65625 1.53125 Z M 2.40625 -6.1875 C 2.40625 -5.550781 2.582031 -5.066406 2.9375 -4.734375 C 3.300781 -4.410156 3.800781 -4.25 4.4375 -4.25 C 5.78125 -4.25 6.453125 -4.898438 6.453125 -6.203125 C 6.453125 -7.578125 5.773438 -8.265625 4.421875 -8.265625 C 3.765625 -8.265625 3.265625 -8.085938 2.921875 -7.734375 C 2.578125 -7.390625 2.40625 -6.875 2.40625 -6.1875 Z M 2.40625 -6.1875 "/></g></g></g><g fill="rgb(96.469116%, 90.589905%, 84.709167%)" fill-opacity="1"><g transform="translate(51.708877, 514.849991)"><g><path d="M 2.84375 0 L 1.46875 0 L 1.46875 -9.09375 L 2.84375 -9.09375 Z M 1.34375 -11.5625 C 1.34375 -11.875 1.421875 -12.101562 1.578125 -12.25 C 1.734375 -12.394531 1.925781 -12.46875 2.15625 -12.46875 C 2.375 -12.46875 2.5625 -12.394531 2.71875 -12.25 C 2.882812 -12.101562 2.96875 -11.875 2.96875 -11.5625 C 2.96875 -11.25 2.882812 -11.015625 2.71875 -10.859375 C 2.5625 -10.710938 2.375 -10.640625 2.15625 -10.640625 C 1.925781 -10.640625 1.734375 -10.710938 1.578125 -10.859375 C 1.421875 -11.015625 1.34375 -11.25 1.34375 -11.5625 Z M 1.34375 -11.5625 "/></g></g></g><g fill="rgb(96.469116%, 90.589905%, 84.709167%)" fill-opacity="1"><g transform="translate(56.008187, 514.849991)"><g><path d="M 7.6875 0 L 7.6875 -5.890625 C 7.6875 -6.628906 7.515625 -7.179688 7.171875 -7.546875 C 6.835938 -7.910156 6.3125 -8.09375 5.59375 -8.09375 C 4.644531 -8.09375 3.945312 -7.832031 3.5 -7.3125 C 3.0625 -6.800781 2.84375 -5.953125 2.84375 -4.765625 L 2.84375 0 L 1.46875 0 L 1.46875 -9.09375 L 2.578125 -9.09375 L 2.8125 -7.859375 L 2.875 -7.859375 C 3.15625 -8.304688 3.550781 -8.648438 4.0625 -8.890625 C 4.570312 -9.140625 5.140625 -9.265625 5.765625 -9.265625 C 6.859375 -9.265625 7.679688 -9 8.234375 -8.46875 C 8.785156 -7.9375 9.0625 -7.09375 9.0625 -5.9375 L 9.0625 0 Z M 7.6875 0 "/></g></g></g><g fill="rgb(96.469116%, 90.589905%, 84.709167%)" fill-opacity="1"><g transform="translate(66.441073, 514.849991)"><g><path d="M 7.6875 0 L 7.6875 -5.890625 C 7.6875 -6.628906 7.515625 -7.179688 7.171875 -7.546875 C 6.835938 -7.910156 6.3125 -8.09375 5.59375 -8.09375 C 4.644531 -8.09375 3.945312 -7.832031 3.5 -7.3125 C 3.0625 -6.800781 2.84375 -5.953125 2.84375 -4.765625 L 2.84375 0 L 1.46875 0 L 1.46875 -9.09375 L 2.578125 -9.09375 L 2.8125 -7.859375 L 2.875 -7.859375 C 3.15625 -8.304688 3.550781 -8.648438 4.0625 -8.890625 C 4.570312 -9.140625 5.140625 -9.265625 5.765625 -9.265625 C 6.859375 -9.265625 7.679688 -9 8.234375 -8.46875 C 8.785156 -7.9375 9.0625 -7.09375 9.0625 -5.9375 L 9.0625 0 Z M 7.6875 0 "/></g></g></g><g fill="rgb(96.469116%, 90.589905%, 84.709167%)" fill-opacity="1"><g transform="translate(76.873959, 514.849991)"><g><path d="M 5.296875 0.171875 C 3.953125 0.171875 2.890625 -0.238281 2.109375 -1.0625 C 1.335938 -1.882812 0.953125 -3.019531 0.953125 -4.46875 C 0.953125 -5.9375 1.3125 -7.101562 2.03125 -7.96875 C 2.757812 -8.832031 3.734375 -9.265625 4.953125 -9.265625 C 6.085938 -9.265625 6.988281 -8.890625 7.65625 -8.140625 C 8.320312 -7.390625 8.65625 -6.398438 8.65625 -5.171875 L 8.65625 -4.296875 L 2.375 -4.296875 C 2.40625 -3.234375 2.675781 -2.421875 3.1875 -1.859375 C 3.695312 -1.304688 4.421875 -1.03125 5.359375 -1.03125 C 6.335938 -1.03125 7.304688 -1.238281 8.265625 -1.65625 L 8.265625 -0.421875 C 7.773438 -0.210938 7.3125 -0.0625 6.875 0.03125 C 6.4375 0.125 5.910156 0.171875 5.296875 0.171875 Z M 4.9375 -8.109375 C 4.195312 -8.109375 3.609375 -7.867188 3.171875 -7.390625 C 2.742188 -6.921875 2.492188 -6.265625 2.421875 -5.421875 L 7.171875 -5.421875 C 7.171875 -6.285156 6.976562 -6.945312 6.59375 -7.40625 C 6.207031 -7.875 5.65625 -8.109375 4.9375 -8.109375 Z M 4.9375 -8.109375 "/></g></g></g><g fill="rgb(96.469116%, 90.589905%, 84.709167%)" fill-opacity="1"><g transform="translate(86.410463, 514.849991)"><g><path d="M 5.609375 -9.265625 C 6.015625 -9.265625 6.378906 -9.234375 6.703125 -9.171875 L 6.515625 -7.890625 C 6.128906 -7.972656 5.796875 -8.015625 5.515625 -8.015625 C 4.773438 -8.015625 4.144531 -7.710938 3.625 -7.109375 C 3.101562 -6.515625 2.84375 -5.769531 2.84375 -4.875 L 2.84375 0 L 1.46875 0 L 1.46875 -9.09375 L 2.59375 -9.09375 L 2.75 -7.40625 L 2.828125 -7.40625 C 3.160156 -8 3.5625 -8.457031 4.03125 -8.78125 C 4.507812 -9.101562 5.035156 -9.265625 5.609375 -9.265625 Z M 5.609375 -9.265625 "/></g></g></g><g fill="rgb(96.469116%, 90.589905%, 84.709167%)" fill-opacity="1"><g transform="translate(6.248093, 319.075027)"><g><path d="M 1.671875 0 L 1.671875 -12.140625 L 3.078125 -12.140625 L 3.078125 0 Z M 1.671875 0 "/></g></g></g><g fill="rgb(96.469116%, 90.589905%, 84.709167%)" fill-opacity="1"><g transform="translate(10.987298, 319.075027)"><g><path d="M 7.6875 0 L 7.6875 -5.890625 C 7.6875 -6.628906 7.515625 -7.179688 7.171875 -7.546875 C 6.835938 -7.910156 6.3125 -8.09375 5.59375 -8.09375 C 4.644531 -8.09375 3.945312 -7.832031 3.5 -7.3125 C 3.0625 -6.800781 2.84375 -5.953125 2.84375 -4.765625 L 2.84375 0 L 1.46875 0 L 1.46875 -9.09375 L 2.578125 -9.09375 L 2.8125 -7.859375 L 2.875 -7.859375 C 3.15625 -8.304688 3.550781 -8.648438 4.0625 -8.890625 C 4.570312 -9.140625 5.140625 -9.265625 5.765625 -9.265625 C 6.859375 -9.265625 7.679688 -9 8.234375 -8.46875 C 8.785156 -7.9375 9.0625 -7.09375 9.0625 -5.9375 L 9.0625 0 Z M 7.6875 0 "/></g></g></g><g fill="rgb(96.469116%, 90.589905%, 84.709167%)" fill-opacity="1"><g transform="translate(21.420183, 319.075027)"><g><path d="M 4.40625 -0.96875 C 4.644531 -0.96875 4.878906 -0.984375 5.109375 -1.015625 C 5.335938 -1.054688 5.515625 -1.097656 5.640625 -1.140625 L 5.640625 -0.078125 C 5.492188 -0.00390625 5.273438 0.0507812 4.984375 0.09375 C 4.691406 0.144531 4.429688 0.171875 4.203125 0.171875 C 2.441406 0.171875 1.5625 -0.753906 1.5625 -2.609375 L 1.5625 -8.03125 L 0.25 -8.03125 L 0.25 -8.6875 L 1.5625 -9.265625 L 2.140625 -11.203125 L 2.9375 -11.203125 L 2.9375 -9.09375 L 5.578125 -9.09375 L 5.578125 -8.03125 L 2.9375 -8.03125 L 2.9375 -2.671875 C 2.9375 -2.117188 3.066406 -1.695312 3.328125 -1.40625 C 3.585938 -1.113281 3.945312 -0.96875 4.40625 -0.96875 Z M 4.40625 -0.96875 "/></g></g></g><g fill="rgb(96.469116%, 90.589905%, 84.709167%)" fill-opacity="1"><g transform="translate(27.420961, 319.075027)"><g><path d="M 5.296875 0.171875 C 3.953125 0.171875 2.890625 -0.238281 2.109375 -1.0625 C 1.335938 -1.882812 0.953125 -3.019531 0.953125 -4.46875 C 0.953125 -5.9375 1.3125 -7.101562 2.03125 -7.96875 C 2.757812 -8.832031 3.734375 -9.265625 4.953125 -9.265625 C 6.085938 -9.265625 6.988281 -8.890625 7.65625 -8.140625 C 8.320312 -7.390625 8.65625 -6.398438 8.65625 -5.171875 L 8.65625 -4.296875 L 2.375 -4.296875 C 2.40625 -3.234375 2.675781 -2.421875 3.1875 -1.859375 C 3.695312 -1.304688 4.421875 -1.03125 5.359375 -1.03125 C 6.335938 -1.03125 7.304688 -1.238281 8.265625 -1.65625 L 8.265625 -0.421875 C 7.773438 -0.210938 7.3125 -0.0625 6.875 0.03125 C 6.4375 0.125 5.910156 0.171875 5.296875 0.171875 Z M 4.9375 -8.109375 C 4.195312 -8.109375 3.609375 -7.867188 3.171875 -7.390625 C 2.742188 -6.921875 2.492188 -6.265625 2.421875 -5.421875 L 7.171875 -5.421875 C 7.171875 -6.285156 6.976562 -6.945312 6.59375 -7.40625 C 6.207031 -7.875 5.65625 -8.109375 4.9375 -8.109375 Z M 4.9375 -8.109375 "/></g></g></g><g fill="rgb(96.469116%, 90.589905%, 84.709167%)" fill-opacity="1"><g transform="translate(36.957466, 319.075027)"><g><path d="M 5.609375 -9.265625 C 6.015625 -9.265625 6.378906 -9.234375 6.703125 -9.171875 L 6.515625 -7.890625 C 6.128906 -7.972656 5.796875 -8.015625 5.515625 -8.015625 C 4.773438 -8.015625 4.144531 -7.710938 3.625 -7.109375 C 3.101562 -6.515625 2.84375 -5.769531 2.84375 -4.875 L 2.84375 0 L 1.46875 0 L 1.46875 -9.09375 L 2.59375 -9.09375 L 2.75 -7.40625 L 2.828125 -7.40625 C 3.160156 -8 3.5625 -8.457031 4.03125 -8.78125 C 4.507812 -9.101562 5.035156 -9.265625 5.609375 -9.265625 Z M 5.609375 -9.265625 "/></g></g></g><g fill="rgb(96.469116%, 90.589905%, 84.709167%)" fill-opacity="1"><g transform="translate(43.896121, 319.075027)"><g><path d="M 13.0625 0 L 13.0625 -5.921875 C 13.0625 -6.640625 12.90625 -7.179688 12.59375 -7.546875 C 12.28125 -7.910156 11.796875 -8.09375 11.140625 -8.09375 C 10.285156 -8.09375 9.65625 -7.84375 9.25 -7.34375 C 8.84375 -6.851562 8.640625 -6.097656 8.640625 -5.078125 L 8.640625 0 L 7.25 0 L 7.25 -5.921875 C 7.25 -6.640625 7.09375 -7.179688 6.78125 -7.546875 C 6.476562 -7.910156 6 -8.09375 5.34375 -8.09375 C 4.476562 -8.09375 3.84375 -7.832031 3.4375 -7.3125 C 3.039062 -6.800781 2.84375 -5.953125 2.84375 -4.765625 L 2.84375 0 L 1.46875 0 L 1.46875 -9.09375 L 2.578125 -9.09375 L 2.8125 -7.859375 L 2.875 -7.859375 C 3.132812 -8.296875 3.5 -8.640625 3.96875 -8.890625 C 4.445312 -9.140625 4.976562 -9.265625 5.5625 -9.265625 C 6.976562 -9.265625 7.90625 -8.75 8.34375 -7.71875 L 8.421875 -7.71875 C 8.691406 -8.195312 9.082031 -8.570312 9.59375 -8.84375 C 10.113281 -9.125 10.703125 -9.265625 11.359375 -9.265625 C 12.390625 -9.265625 13.160156 -9 13.671875 -8.46875 C 14.179688 -7.9375 14.4375 -7.09375 14.4375 -5.9375 L 14.4375 0 Z M 13.0625 0 "/></g></g></g><g fill="rgb(96.469116%, 90.589905%, 84.709167%)" fill-opacity="1"><g transform="translate(59.707295, 319.075027)"><g><path d="M 5.296875 0.171875 C 3.953125 0.171875 2.890625 -0.238281 2.109375 -1.0625 C 1.335938 -1.882812 0.953125 -3.019531 0.953125 -4.46875 C 0.953125 -5.9375 1.3125 -7.101562 2.03125 -7.96875 C 2.757812 -8.832031 3.734375 -9.265625 4.953125 -9.265625 C 6.085938 -9.265625 6.988281 -8.890625 7.65625 -8.140625 C 8.320312 -7.390625 8.65625 -6.398438 8.65625 -5.171875 L 8.65625 -4.296875 L 2.375 -4.296875 C 2.40625 -3.234375 2.675781 -2.421875 3.1875 -1.859375 C 3.695312 -1.304688 4.421875 -1.03125 5.359375 -1.03125 C 6.335938 -1.03125 7.304688 -1.238281 8.265625 -1.65625 L 8.265625 -0.421875 C 7.773438 -0.210938 7.3125 -0.0625 6.875 0.03125 C 6.4375 0.125 5.910156 0.171875 5.296875 0.171875 Z M 4.9375 -8.109375 C 4.195312 -8.109375 3.609375 -7.867188 3.171875 -7.390625 C 2.742188 -6.921875 2.492188 -6.265625 2.421875 -5.421875 L 7.171875 -5.421875 C 7.171875 -6.285156 6.976562 -6.945312 6.59375 -7.40625 C 6.207031 -7.875 5.65625 -8.109375 4.9375 -8.109375 Z M 4.9375 -8.109375 "/></g></g></g><g fill="rgb(96.469116%, 90.589905%, 84.709167%)" fill-opacity="1"><g transform="translate(69.243799, 319.075027)"><g><path d="M 7.65625 -1.21875 L 7.578125 -1.21875 C 6.941406 -0.289062 5.988281 0.171875 4.71875 0.171875 C 3.53125 0.171875 2.601562 -0.234375 1.9375 -1.046875 C 1.28125 -1.867188 0.953125 -3.03125 0.953125 -4.53125 C 0.953125 -6.03125 1.285156 -7.191406 1.953125 -8.015625 C 2.617188 -8.847656 3.539062 -9.265625 4.71875 -9.265625 C 5.957031 -9.265625 6.90625 -8.816406 7.5625 -7.921875 L 7.671875 -7.921875 L 7.609375 -8.578125 L 7.578125 -9.21875 L 7.578125 -12.921875 L 8.953125 -12.921875 L 8.953125 0 L 7.84375 0 Z M 4.890625 -0.984375 C 5.835938 -0.984375 6.519531 -1.238281 6.9375 -1.75 C 7.363281 -2.269531 7.578125 -3.097656 7.578125 -4.234375 L 7.578125 -4.53125 C 7.578125 -5.8125 7.363281 -6.726562 6.9375 -7.28125 C 6.507812 -7.832031 5.820312 -8.109375 4.875 -8.109375 C 4.070312 -8.109375 3.453125 -7.789062 3.015625 -7.15625 C 2.585938 -6.53125 2.375 -5.644531 2.375 -4.5 C 2.375 -3.34375 2.585938 -2.46875 3.015625 -1.875 C 3.441406 -1.28125 4.066406 -0.984375 4.890625 -0.984375 Z M 4.890625 -0.984375 "/></g></g></g><g fill="rgb(96.469116%, 90.589905%, 84.709167%)" fill-opacity="1"><g transform="translate(79.660085, 319.075027)"><g><path d="M 2.84375 0 L 1.46875 0 L 1.46875 -9.09375 L 2.84375 -9.09375 Z M 1.34375 -11.5625 C 1.34375 -11.875 1.421875 -12.101562 1.578125 -12.25 C 1.734375 -12.394531 1.925781 -12.46875 2.15625 -12.46875 C 2.375 -12.46875 2.5625 -12.394531 2.71875 -12.25 C 2.882812 -12.101562 2.96875 -11.875 2.96875 -11.5625 C 2.96875 -11.25 2.882812 -11.015625 2.71875 -10.859375 C 2.5625 -10.710938 2.375 -10.640625 2.15625 -10.640625 C 1.925781 -10.640625 1.734375 -10.710938 1.578125 -10.859375 C 1.421875 -11.015625 1.34375 -11.25 1.34375 -11.5625 Z M 1.34375 -11.5625 "/></g></g></g><g fill="rgb(96.469116%, 90.589905%, 84.709167%)" fill-opacity="1"><g transform="translate(83.959396, 319.075027)"><g><path d="M 7.0625 0 L 6.78125 -1.296875 L 6.71875 -1.296875 C 6.257812 -0.722656 5.804688 -0.332031 5.359375 -0.125 C 4.910156 0.0703125 4.347656 0.171875 3.671875 0.171875 C 2.765625 0.171875 2.054688 -0.0625 1.546875 -0.53125 C 1.035156 -1 0.78125 -1.660156 0.78125 -2.515625 C 0.78125 -4.347656 2.25 -5.3125 5.1875 -5.40625 L 6.734375 -5.453125 L 6.734375 -6.015625 C 6.734375 -6.734375 6.578125 -7.257812 6.265625 -7.59375 C 5.960938 -7.9375 5.472656 -8.109375 4.796875 -8.109375 C 4.035156 -8.109375 3.175781 -7.875 2.21875 -7.40625 L 1.796875 -8.46875 C 2.242188 -8.707031 2.734375 -8.894531 3.265625 -9.03125 C 3.804688 -9.175781 4.34375 -9.25 4.875 -9.25 C 5.96875 -9.25 6.773438 -9.003906 7.296875 -8.515625 C 7.816406 -8.035156 8.078125 -7.265625 8.078125 -6.203125 L 8.078125 0 Z M 3.9375 -0.96875 C 4.800781 -0.96875 5.476562 -1.203125 5.96875 -1.671875 C 6.457031 -2.140625 6.703125 -2.800781 6.703125 -3.65625 L 6.703125 -4.46875 L 5.328125 -4.421875 C 4.222656 -4.378906 3.425781 -4.207031 2.9375 -3.90625 C 2.457031 -3.601562 2.21875 -3.132812 2.21875 -2.5 C 2.21875 -2 2.367188 -1.617188 2.671875 -1.359375 C 2.972656 -1.097656 3.394531 -0.96875 3.9375 -0.96875 Z M 3.9375 -0.96875 "/></g></g></g><g fill="rgb(96.469116%, 90.589905%, 84.709167%)" fill-opacity="1"><g transform="translate(93.412902, 319.075027)"><g><path d="M 4.40625 -0.96875 C 4.644531 -0.96875 4.878906 -0.984375 5.109375 -1.015625 C 5.335938 -1.054688 5.515625 -1.097656 5.640625 -1.140625 L 5.640625 -0.078125 C 5.492188 -0.00390625 5.273438 0.0507812 4.984375 0.09375 C 4.691406 0.144531 4.429688 0.171875 4.203125 0.171875 C 2.441406 0.171875 1.5625 -0.753906 1.5625 -2.609375 L 1.5625 -8.03125 L 0.25 -8.03125 L 0.25 -8.6875 L 1.5625 -9.265625 L 2.140625 -11.203125 L 2.9375 -11.203125 L 2.9375 -9.09375 L 5.578125 -9.09375 L 5.578125 -8.03125 L 2.9375 -8.03125 L 2.9375 -2.671875 C 2.9375 -2.117188 3.066406 -1.695312 3.328125 -1.40625 C 3.585938 -1.113281 3.945312 -0.96875 4.40625 -0.96875 Z M 4.40625 -0.96875 "/></g></g></g><g fill="rgb(96.469116%, 90.589905%, 84.709167%)" fill-opacity="1"><g transform="translate(99.41368, 319.075027)"><g><path d="M 5.296875 0.171875 C 3.953125 0.171875 2.890625 -0.238281 2.109375 -1.0625 C 1.335938 -1.882812 0.953125 -3.019531 0.953125 -4.46875 C 0.953125 -5.9375 1.3125 -7.101562 2.03125 -7.96875 C 2.757812 -8.832031 3.734375 -9.265625 4.953125 -9.265625 C 6.085938 -9.265625 6.988281 -8.890625 7.65625 -8.140625 C 8.320312 -7.390625 8.65625 -6.398438 8.65625 -5.171875 L 8.65625 -4.296875 L 2.375 -4.296875 C 2.40625 -3.234375 2.675781 -2.421875 3.1875 -1.859375 C 3.695312 -1.304688 4.421875 -1.03125 5.359375 -1.03125 C 6.335938 -1.03125 7.304688 -1.238281 8.265625 -1.65625 L 8.265625 -0.421875 C 7.773438 -0.210938 7.3125 -0.0625 6.875 0.03125 C 6.4375 0.125 5.910156 0.171875 5.296875 0.171875 Z M 4.9375 -8.109375 C 4.195312 -8.109375 3.609375 -7.867188 3.171875 -7.390625 C 2.742188 -6.921875 2.492188 -6.265625 2.421875 -5.421875 L 7.171875 -5.421875 C 7.171875 -6.285156 6.976562 -6.945312 6.59375 -7.40625 C 6.207031 -7.875 5.65625 -8.109375 4.9375 -8.109375 Z M 4.9375 -8.109375 "/></g></g></g><g fill="rgb(96.469116%, 90.589905%, 84.709167%)" fill-opacity="1"><g transform="translate(18.787499, 123.350024)"><g><path d="M 9.296875 0 L 7.78125 -3.859375 L 2.921875 -3.859375 L 1.421875 0 L 0 0 L 4.796875 -12.1875 L 5.984375 -12.1875 L 10.765625 0 Z M 7.34375 -5.125 L 5.9375 -8.890625 C 5.75 -9.367188 5.5625 -9.953125 5.375 -10.640625 C 5.25 -10.109375 5.070312 -9.523438 4.84375 -8.890625 L 3.421875 -5.125 Z M 7.34375 -5.125 "/></g></g></g><g fill="rgb(96.469116%, 90.589905%, 84.709167%)" fill-opacity="1"><g transform="translate(29.544075, 123.350024)"><g><path d="M 7.65625 -1.21875 L 7.578125 -1.21875 C 6.941406 -0.289062 5.988281 0.171875 4.71875 0.171875 C 3.53125 0.171875 2.601562 -0.234375 1.9375 -1.046875 C 1.28125 -1.867188 0.953125 -3.03125 0.953125 -4.53125 C 0.953125 -6.03125 1.285156 -7.191406 1.953125 -8.015625 C 2.617188 -8.847656 3.539062 -9.265625 4.71875 -9.265625 C 5.957031 -9.265625 6.90625 -8.816406 7.5625 -7.921875 L 7.671875 -7.921875 L 7.609375 -8.578125 L 7.578125 -9.21875 L 7.578125 -12.921875 L 8.953125 -12.921875 L 8.953125 0 L 7.84375 0 Z M 4.890625 -0.984375 C 5.835938 -0.984375 6.519531 -1.238281 6.9375 -1.75 C 7.363281 -2.269531 7.578125 -3.097656 7.578125 -4.234375 L 7.578125 -4.53125 C 7.578125 -5.8125 7.363281 -6.726562 6.9375 -7.28125 C 6.507812 -7.832031 5.820312 -8.109375 4.875 -8.109375 C 4.070312 -8.109375 3.453125 -7.789062 3.015625 -7.15625 C 2.585938 -6.53125 2.375 -5.644531 2.375 -4.5 C 2.375 -3.34375 2.585938 -2.46875 3.015625 -1.875 C 3.441406 -1.28125 4.066406 -0.984375 4.890625 -0.984375 Z M 4.890625 -0.984375 "/></g></g></g><g fill="rgb(96.469116%, 90.589905%, 84.709167%)" fill-opacity="1"><g transform="translate(39.960361, 123.350024)"><g><path d="M 3.453125 0 L 0 -9.09375 L 1.484375 -9.09375 L 3.4375 -3.703125 C 3.875 -2.441406 4.132812 -1.625 4.21875 -1.25 L 4.28125 -1.25 C 4.34375 -1.539062 4.535156 -2.144531 4.859375 -3.0625 C 5.179688 -3.988281 5.910156 -6 7.046875 -9.09375 L 8.515625 -9.09375 L 5.0625 0 Z M 3.453125 0 "/></g></g></g><g fill="rgb(96.469116%, 90.589905%, 84.709167%)" fill-opacity="1"><g transform="translate(48.475984, 123.350024)"><g><path d="M 7.0625 0 L 6.78125 -1.296875 L 6.71875 -1.296875 C 6.257812 -0.722656 5.804688 -0.332031 5.359375 -0.125 C 4.910156 0.0703125 4.347656 0.171875 3.671875 0.171875 C 2.765625 0.171875 2.054688 -0.0625 1.546875 -0.53125 C 1.035156 -1 0.78125 -1.660156 0.78125 -2.515625 C 0.78125 -4.347656 2.25 -5.3125 5.1875 -5.40625 L 6.734375 -5.453125 L 6.734375 -6.015625 C 6.734375 -6.734375 6.578125 -7.257812 6.265625 -7.59375 C 5.960938 -7.9375 5.472656 -8.109375 4.796875 -8.109375 C 4.035156 -8.109375 3.175781 -7.875 2.21875 -7.40625 L 1.796875 -8.46875 C 2.242188 -8.707031 2.734375 -8.894531 3.265625 -9.03125 C 3.804688 -9.175781 4.34375 -9.25 4.875 -9.25 C 5.96875 -9.25 6.773438 -9.003906 7.296875 -8.515625 C 7.816406 -8.035156 8.078125 -7.265625 8.078125 -6.203125 L 8.078125 0 Z M 3.9375 -0.96875 C 4.800781 -0.96875 5.476562 -1.203125 5.96875 -1.671875 C 6.457031 -2.140625 6.703125 -2.800781 6.703125 -3.65625 L 6.703125 -4.46875 L 5.328125 -4.421875 C 4.222656 -4.378906 3.425781 -4.207031 2.9375 -3.90625 C 2.457031 -3.601562 2.21875 -3.132812 2.21875 -2.5 C 2.21875 -2 2.367188 -1.617188 2.671875 -1.359375 C 2.972656 -1.097656 3.394531 -0.96875 3.9375 -0.96875 Z M 3.9375 -0.96875 "/></g></g></g><g fill="rgb(96.469116%, 90.589905%, 84.709167%)" fill-opacity="1"><g transform="translate(57.92949, 123.350024)"><g><path d="M 7.6875 0 L 7.6875 -5.890625 C 7.6875 -6.628906 7.515625 -7.179688 7.171875 -7.546875 C 6.835938 -7.910156 6.3125 -8.09375 5.59375 -8.09375 C 4.644531 -8.09375 3.945312 -7.832031 3.5 -7.3125 C 3.0625 -6.800781 2.84375 -5.953125 2.84375 -4.765625 L 2.84375 0 L 1.46875 0 L 1.46875 -9.09375 L 2.578125 -9.09375 L 2.8125 -7.859375 L 2.875 -7.859375 C 3.15625 -8.304688 3.550781 -8.648438 4.0625 -8.890625 C 4.570312 -9.140625 5.140625 -9.265625 5.765625 -9.265625 C 6.859375 -9.265625 7.679688 -9 8.234375 -8.46875 C 8.785156 -7.9375 9.0625 -7.09375 9.0625 -5.9375 L 9.0625 0 Z M 7.6875 0 "/></g></g></g><g fill="rgb(96.469116%, 90.589905%, 84.709167%)" fill-opacity="1"><g transform="translate(68.362376, 123.350024)"><g><path d="M 5.09375 0.171875 C 3.78125 0.171875 2.757812 -0.234375 2.03125 -1.046875 C 1.3125 -1.859375 0.953125 -3.003906 0.953125 -4.484375 C 0.953125 -6.015625 1.316406 -7.191406 2.046875 -8.015625 C 2.785156 -8.847656 3.832031 -9.265625 5.1875 -9.265625 C 5.625 -9.265625 6.0625 -9.21875 6.5 -9.125 C 6.9375 -9.03125 7.28125 -8.921875 7.53125 -8.796875 L 7.109375 -7.625 C 6.804688 -7.738281 6.472656 -7.835938 6.109375 -7.921875 C 5.742188 -8.003906 5.425781 -8.046875 5.15625 -8.046875 C 3.300781 -8.046875 2.375 -6.863281 2.375 -4.5 C 2.375 -3.382812 2.597656 -2.523438 3.046875 -1.921875 C 3.503906 -1.328125 4.175781 -1.03125 5.0625 -1.03125 C 5.820312 -1.03125 6.597656 -1.195312 7.390625 -1.53125 L 7.390625 -0.3125 C 6.785156 0.0078125 6.019531 0.171875 5.09375 0.171875 Z M 5.09375 0.171875 "/></g></g></g><g fill="rgb(96.469116%, 90.589905%, 84.709167%)" fill-opacity="1"><g transform="translate(76.45471, 123.350024)"><g><path d="M 5.296875 0.171875 C 3.953125 0.171875 2.890625 -0.238281 2.109375 -1.0625 C 1.335938 -1.882812 0.953125 -3.019531 0.953125 -4.46875 C 0.953125 -5.9375 1.3125 -7.101562 2.03125 -7.96875 C 2.757812 -8.832031 3.734375 -9.265625 4.953125 -9.265625 C 6.085938 -9.265625 6.988281 -8.890625 7.65625 -8.140625 C 8.320312 -7.390625 8.65625 -6.398438 8.65625 -5.171875 L 8.65625 -4.296875 L 2.375 -4.296875 C 2.40625 -3.234375 2.675781 -2.421875 3.1875 -1.859375 C 3.695312 -1.304688 4.421875 -1.03125 5.359375 -1.03125 C 6.335938 -1.03125 7.304688 -1.238281 8.265625 -1.65625 L 8.265625 -0.421875 C 7.773438 -0.210938 7.3125 -0.0625 6.875 0.03125 C 6.4375 0.125 5.910156 0.171875 5.296875 0.171875 Z M 4.9375 -8.109375 C 4.195312 -8.109375 3.609375 -7.867188 3.171875 -7.390625 C 2.742188 -6.921875 2.492188 -6.265625 2.421875 -5.421875 L 7.171875 -5.421875 C 7.171875 -6.285156 6.976562 -6.945312 6.59375 -7.40625 C 6.207031 -7.875 5.65625 -8.109375 4.9375 -8.109375 Z M 4.9375 -8.109375 "/></g></g></g><g fill="rgb(96.469116%, 90.589905%, 84.709167%)" fill-opacity="1"><g transform="translate(85.991215, 123.350024)"><g><path d="M 7.65625 -1.21875 L 7.578125 -1.21875 C 6.941406 -0.289062 5.988281 0.171875 4.71875 0.171875 C 3.53125 0.171875 2.601562 -0.234375 1.9375 -1.046875 C 1.28125 -1.867188 0.953125 -3.03125 0.953125 -4.53125 C 0.953125 -6.03125 1.285156 -7.191406 1.953125 -8.015625 C 2.617188 -8.847656 3.539062 -9.265625 4.71875 -9.265625 C 5.957031 -9.265625 6.90625 -8.816406 7.5625 -7.921875 L 7.671875 -7.921875 L 7.609375 -8.578125 L 7.578125 -9.21875 L 7.578125 -12.921875 L 8.953125 -12.921875 L 8.953125 0 L 7.84375 0 Z M 4.890625 -0.984375 C 5.835938 -0.984375 6.519531 -1.238281 6.9375 -1.75 C 7.363281 -2.269531 7.578125 -3.097656 7.578125 -4.234375 L 7.578125 -4.53125 C 7.578125 -5.8125 7.363281 -6.726562 6.9375 -7.28125 C 6.507812 -7.832031 5.820312 -8.109375 4.875 -8.109375 C 4.070312 -8.109375 3.453125 -7.789062 3.015625 -7.15625 C 2.585938 -6.53125 2.375 -5.644531 2.375 -4.5 C 2.375 -3.34375 2.585938 -2.46875 3.015625 -1.875 C 3.441406 -1.28125 4.066406 -0.984375 4.890625 -0.984375 Z M 4.890625 -0.984375 "/></g></g></g></svg>